<svg id="my-svg" width="100%" xmlns="http://www.w3.org/2000/svg" xmlns:xlink="http://www.w3.org/1999/xlink" class="classDiagram" style="max-width: 468.016px; background-color: white;" viewBox="0 0 468.015625 943" role="graphics-document document" aria-roledescription="class"><style>#my-svg{font-family:"trebuchet ms",verdana,arial,sans-serif;font-size:14px;fill:#1f2328;}@keyframes edge-animation-frame{from{stroke-dashoffset:0;}}@keyframes dash{to{stroke-dashoffset:0;}}#my-svg .edge-animation-slow{stroke-dasharray:9,5!important;stroke-dashoffset:900;animation:dash 50s linear infinite;stroke-linecap:round;}#my-svg .edge-animation-fast{stroke-dasharray:9,5!important;stroke-dashoffset:900;animation:dash 20s linear infinite;stroke-linecap:round;}#my-svg .error-icon{fill:#fff8c5;}#my-svg .error-text{fill:#00073a;stroke:#00073a;}#my-svg .edge-thickness-normal{stroke-width:1px;}#my-svg .edge-thickness-thick{stroke-width:3.5px;}#my-svg .edge-pattern-solid{stroke-dasharray:0;}#my-svg .edge-thickness-invisible{stroke-width:0;fill:none;}#my-svg .edge-pattern-dashed{stroke-dasharray:3;}#my-svg .edge-pattern-dotted{stroke-dasharray:2;}#my-svg .marker{fill:#656d76;stroke:#656d76;}#my-svg .marker.cross{stroke:#656d76;}#my-svg svg{font-family:"trebuchet ms",verdana,arial,sans-serif;font-size:14px;}#my-svg p{margin:0;}#my-svg g.classGroup text{fill:#218bff;stroke:none;font-family:"trebuchet ms",verdana,arial,sans-serif;font-size:10px;}#my-svg g.classGroup text .title{font-weight:bolder;}#my-svg .nodeLabel,#my-svg .edgeLabel{color:#1f2328;}#my-svg .edgeLabel .label rect{fill:#ddf4ff;}#my-svg .label text{fill:#1f2328;}#my-svg .labelBkg{background:#ddf4ff;}#my-svg .edgeLabel .label span{background:#ddf4ff;}#my-svg .classTitle{font-weight:bolder;}#my-svg .node rect,#my-svg .node circle,#my-svg .node ellipse,#my-svg .node polygon,#my-svg .node path{fill:#ddf4ff;stroke:#218bff;stroke-width:1px;}#my-svg .divider{stroke:#218bff;stroke-width:1;}#my-svg g.clickable{cursor:pointer;}#my-svg g.classGroup rect{fill:#ddf4ff;stroke:#218bff;}#my-svg g.classGroup line{stroke:#218bff;stroke-width:1;}#my-svg .classLabel .box{stroke:none;stroke-width:0;fill:#ddf4ff;opacity:0.5;}#my-svg .classLabel .label{fill:#218bff;font-size:10px;}#my-svg .relation{stroke:#656d76;stroke-width:1;fill:none;}#my-svg .dashed-line{stroke-dasharray:3;}#my-svg .dotted-line{stroke-dasharray:1 2;}#my-svg #compositionStart,#my-svg .composition{fill:#656d76!important;stroke:#656d76!important;stroke-width:1;}#my-svg #compositionEnd,#my-svg .composition{fill:#656d76!important;stroke:#656d76!important;stroke-width:1;}#my-svg #dependencyStart,#my-svg .dependency{fill:#656d76!important;stroke:#656d76!important;stroke-width:1;}#my-svg #dependencyStart,#my-svg .dependency{fill:#656d76!important;stroke:#656d76!important;stroke-width:1;}#my-svg #extensionStart,#my-svg .extension{fill:transparent!important;stroke:#656d76!important;stroke-width:1;}#my-svg #extensionEnd,#my-svg .extension{fill:transparent!important;stroke:#656d76!important;stroke-width:1;}#my-svg #aggregationStart,#my-svg .aggregation{fill:transparent!important;stroke:#656d76!important;stroke-width:1;}#my-svg #aggregationEnd,#my-svg .aggregation{fill:transparent!important;stroke:#656d76!important;stroke-width:1;}#my-svg #lollipopStart,#my-svg .lollipop{fill:#ddf4ff!important;stroke:#656d76!important;stroke-width:1;}#my-svg #lollipopEnd,#my-svg .lollipop{fill:#ddf4ff!important;stroke:#656d76!important;stroke-width:1;}#my-svg .edgeTerminals{font-size:11px;line-height:initial;}#my-svg .classTitleText{text-anchor:middle;font-size:18px;fill:#1f2328;}#my-svg .label-icon{display:inline-block;height:1em;overflow:visible;vertical-align:-0.125em;}#my-svg .node .label-icon path{fill:currentColor;stroke:revert;stroke-width:revert;}#my-svg :root{--mermaid-font-family:"trebuchet ms",verdana,arial,sans-serif;}</style><g><defs><marker id="my-svg_class-aggregationStart" class="marker aggregation class" refX="18" refY="7" markerWidth="190" markerHeight="240" orient="auto"><path d="M 18,7 L9,13 L1,7 L9,1 Z"/></marker></defs><defs><marker id="my-svg_class-aggregationEnd" class="marker aggregation class" refX="1" refY="7" markerWidth="20" markerHeight="28" orient="auto"><path d="M 18,7 L9,13 L1,7 L9,1 Z"/></marker></defs><defs><marker id="my-svg_class-extensionStart" class="marker extension class" refX="18" refY="7" markerWidth="190" markerHeight="240" orient="auto"><path d="M 1,7 L18,13 V 1 Z"/></marker></defs><defs><marker id="my-svg_class-extensionEnd" class="marker extension class" refX="1" refY="7" markerWidth="20" markerHeight="28" orient="auto"><path d="M 1,1 V 13 L18,7 Z"/></marker></defs><defs><marker id="my-svg_class-compositionStart" class="marker composition class" refX="18" refY="7" markerWidth="190" markerHeight="240" orient="auto"><path d="M 18,7 L9,13 L1,7 L9,1 Z"/></marker></defs><defs><marker id="my-svg_class-compositionEnd" class="marker composition class" refX="1" refY="7" markerWidth="20" markerHeight="28" orient="auto"><path d="M 18,7 L9,13 L1,7 L9,1 Z"/></marker></defs><defs><marker id="my-svg_class-dependencyStart" class="marker dependency class" refX="6" refY="7" markerWidth="190" markerHeight="240" orient="auto"><path d="M 5,7 L9,13 L1,7 L9,1 Z"/></marker></defs><defs><marker id="my-svg_class-dependencyEnd" class="marker dependency class" refX="13" refY="7" markerWidth="20" markerHeight="28" orient="auto"><path d="M 18,7 L9,13 L14,7 L9,1 Z"/></marker></defs><defs><marker id="my-svg_class-lollipopStart" class="marker lollipop class" refX="13" refY="7" markerWidth="190" markerHeight="240" orient="auto"><circle stroke="black" fill="transparent" cx="7" cy="7" r="6"/></marker></defs><defs><marker id="my-svg_class-lollipopEnd" class="marker lollipop class" refX="1" refY="7" markerWidth="190" markerHeight="240" orient="auto"><circle stroke="black" fill="transparent" cx="7" cy="7" r="6"/></marker></defs><g class="root"><g class="clusters"/><g class="edgePaths"><path d="M102.082,683.25L102.082,684.542C102.082,685.833,102.082,688.417,107.952,696.164C113.823,703.91,125.564,716.821,131.434,723.276L137.305,729.731" id="id_Purchasable_Product_1" class="edge-thickness-normal edge-pattern-dashed relation" style=";;;" data-edge="true" data-et="edge" data-id="id_Purchasable_Product_1" data-points="W3sieCI6MTAyLjA4MjAzMTI1LCJ5Ijo2NjZ9LHsieCI6MTAyLjA4MjAzMTI1LCJ5Ijo2OTF9LHsieCI6MTM3LjMwNDY4NzUsInkiOjcyOS43MzEwODYxMzAzNjEyfV0=" marker-start="url(#my-svg_class-extensionStart)"/><path d="M346.715,471.25L346.715,472.542C346.715,473.833,346.715,476.417,346.715,482.375C346.715,488.333,346.715,497.667,346.715,502.333L346.715,507" id="id_Order_OrderItem_2" class="edge-thickness-normal edge-pattern-solid relation" style=";;;" data-edge="true" data-et="edge" data-id="id_Order_OrderItem_2" data-points="W3sieCI6MzQ2LjcxNDg0Mzc1LCJ5Ijo0NTR9LHsieCI6MzQ2LjcxNDg0Mzc1LCJ5Ijo0Nzl9LHsieCI6MzQ2LjcxNDg0Mzc1LCJ5Ijo1MDd9XQ==" marker-start="url(#my-svg_class-compositionStart)"/><path d="M346.715,663L346.715,667.667C346.715,672.333,346.715,681.667,341.517,692.049C336.32,702.431,325.924,713.861,320.727,719.577L315.529,725.292" id="id_OrderItem_Product_3" class="edge-thickness-normal edge-pattern-solid relation" style=";;;" data-edge="true" data-et="edge" data-id="id_OrderItem_Product_3" data-points="W3sieCI6MzQ2LjcxNDg0Mzc1LCJ5Ijo2NjN9LHsieCI6MzQ2LjcxNDg0Mzc1LCJ5Ijo2OTF9LHsieCI6MzExLjQ5MjE4NzUsInkiOjcyOS43MzEwODYxMzAzNjEyfV0=" marker-end="url(#my-svg_class-dependencyEnd)"/><path d="M346.715,185L346.715,190.917C346.715,196.833,346.715,208.667,346.715,219.5C346.715,230.333,346.715,240.167,346.715,245.083L346.715,250" id="id_Customer_Order_4" class="edge-thickness-normal edge-pattern-solid relation" style=";;;" data-edge="true" data-et="edge" data-id="id_Customer_Order_4" data-points="W3sieCI6MzQ2LjcxNDg0Mzc1LCJ5IjoxODV9LHsieCI6MzQ2LjcxNDg0Mzc1LCJ5IjoyMjAuNX0seyJ4IjozNDYuNzE0ODQzNzUsInkiOjI1Nn1d" marker-end="url(#my-svg_class-dependencyEnd)"/></g><g class="edgeLabels"><g class="edgeLabel"><g class="label" data-id="id_Purchasable_Product_1" transform="translate(0, 0)"><foreignObject width="0" height="0"><div xmlns="http://www.w3.org/1999/xhtml" class="labelBkg" style="display: table-cell; white-space: nowrap; line-height: 1.5; max-width: 200px; text-align: center;"><span class="edgeLabel"></span></div></foreignObject></g></g><g class="edgeLabel"><g class="label" data-id="id_Order_OrderItem_2" transform="translate(0, 0)"><foreignObject width="0" height="0"><div xmlns="http://www.w3.org/1999/xhtml" class="labelBkg" style="display: table-cell; white-space: nowrap; line-height: 1.5; max-width: 200px; text-align: center;"><span class="edgeLabel"></span></div></foreignObject></g></g><g class="edgeLabel"><g class="label" data-id="id_OrderItem_Product_3" transform="translate(0, 0)"><foreignObject width="0" height="0"><div xmlns="http://www.w3.org/1999/xhtml" class="labelBkg" style="display: table-cell; white-space: nowrap; line-height: 1.5; max-width: 200px; text-align: center;"><span class="edgeLabel"></span></div></foreignObject></g></g><g class="edgeLabel" transform="translate(346.71484375, 220.5)"><g class="label" data-id="id_Customer_Order_4" transform="translate(-19.765625, -10.5)"><foreignObject width="39.53125" height="21"><div xmlns="http://www.w3.org/1999/xhtml" class="labelBkg" style="display: table-cell; white-space: nowrap; line-height: 1.5; max-width: 200px; text-align: center;"><span class="edgeLabel"><p>places</p></span></div></foreignObject></g></g><g class="edgeTerminals" transform="translate(331.7148418750001, 202.49999839285712)"><g class="inner" transform="translate(0, 0)"><foreignObject style="width: 9px; height: 12px;"><div xmlns="http://www.w3.org/1999/xhtml" style="display: inline-block; padding-right: 1px; white-space: nowrap;"><span class="edgeLabel">1</span></div></foreignObject></g></g><g class="edgeTerminals" transform="translate(356.7148418749999, 233.49999839285712)"><g class="inner" transform="translate(0, 0)"/><foreignObject style="width: 9px; height: 12px;"><div xmlns="http://www.w3.org/1999/xhtml" style="display: inline-block; padding-right: 1px; white-space: nowrap;"><span class="edgeLabel">*</span></div></foreignObject></g></g><g class="nodes"><g class="node default" id="classId-Purchasable-0" transform="translate(102.08203125, 585)"><g class="basic label-container"><path d="M-94.08203125 -81 L94.08203125 -81 L94.08203125 81 L-94.08203125 81" stroke="none" stroke-width="0" fill="#ddf4ff" style=""/><path d="M-94.08203125 -81 C-27.88532489856148 -81, 38.31138145287704 -81, 94.08203125 -81 M-94.08203125 -81 C-55.53090491217935 -81, -16.979778574358704 -81, 94.08203125 -81 M94.08203125 -81 C94.08203125 -44.08873933945385, 94.08203125 -7.177478678907704, 94.08203125 81 M94.08203125 -81 C94.08203125 -42.59583143757344, 94.08203125 -4.191662875146875, 94.08203125 81 M94.08203125 81 C30.666244488598046 81, -32.74954227280391 81, -94.08203125 81 M94.08203125 81 C47.78456481802184 81, 1.4870983860436837 81, -94.08203125 81 M-94.08203125 81 C-94.08203125 36.68244808886764, -94.08203125 -7.635103822264725, -94.08203125 -81 M-94.08203125 81 C-94.08203125 21.592752276115988, -94.08203125 -37.814495447768024, -94.08203125 -81" stroke="#218bff" stroke-width="1.3" fill="none" stroke-dasharray="0 0" style=""/></g><g class="annotation-group text" transform="translate(-36.03125, -57)"><g class="label" style="" transform="translate(0,-10.5)"><foreignObject width="72.0625" height="21"><div xmlns="http://www.w3.org/1999/xhtml" style="display: table-cell; white-space: nowrap; line-height: 1.5; max-width: 122px; text-align: center;"><span class="nodeLabel markdown-node-label" style=""><p>«interface»</p></span></div></foreignObject></g></g><g class="label-group text" transform="translate(-39.6015625, -36)"><g class="label" style="font-weight: bolder" transform="translate(0,-10.5)"><foreignObject width="79.203125" height="21"><div xmlns="http://www.w3.org/1999/xhtml" style="display: table-cell; white-space: nowrap; line-height: 1.5; max-width: 127px; text-align: center;"><span class="nodeLabel markdown-node-label" style=""><p>Purchasable</p></span></div></foreignObject></g></g><g class="members-group text" transform="translate(-82.08203125, 9)"/><g class="methods-group text" transform="translate(-82.08203125, 39)"><g class="label" style="" transform="translate(0,-10.5)"><foreignObject width="122.203125" height="21"><div xmlns="http://www.w3.org/1999/xhtml" style="display: table-cell; white-space: nowrap; line-height: 1.5; max-width: 184px; text-align: center;"><span class="nodeLabel markdown-node-label" style=""><p>+getPrice() : Money</p></span></div></foreignObject></g><g class="label" style="" transform="translate(0,10.5)"><foreignObject width="124.5625" height="21"><div xmlns="http://www.w3.org/1999/xhtml" style="display: table-cell; white-space: nowrap; line-height: 1.5; max-width: 187px; text-align: center;"><span class="nodeLabel markdown-node-label" style=""><p>+isAvailable() : bool</p></span></div></foreignObject></g></g><g class="divider" style=""><path d="M-94.08203125 -15 C-36.13893154302534 -15, 21.804168163949313 -15, 94.08203125 -15 M-94.08203125 -15 C-49.79381124573273 -15, -5.505591241465467 -15, 94.08203125 -15" stroke="#218bff" stroke-width="1.3" fill="none" stroke-dasharray="0 0" style=""/></g><g class="divider" style=""><path d="M-94.08203125 9 C-43.90410983105199 9, 6.27381158789602 9, 94.08203125 9 M-94.08203125 9 C-28.688923433417216 9, 36.70418438316557 9, 94.08203125 9" stroke="#218bff" stroke-width="1.3" fill="none" stroke-dasharray="0 0" style=""/></g></g><g class="node default" id="classId-Product-1" transform="translate(224.3984375, 825.5)"><g class="basic label-container"><path d="M-87.09375 -109.5 L87.09375 -109.5 L87.09375 109.5 L-87.09375 109.5" stroke="none" stroke-width="0" fill="#ddf4ff" style=""/><path d="M-87.09375 -109.5 C-34.38276896354223 -109.5, 18.328212072915534 -109.5, 87.09375 -109.5 M-87.09375 -109.5 C-33.20579585026449 -109.5, 20.682158299471027 -109.5, 87.09375 -109.5 M87.09375 -109.5 C87.09375 -62.02347827829436, 87.09375 -14.546956556588725, 87.09375 109.5 M87.09375 -109.5 C87.09375 -57.41469133920839, 87.09375 -5.329382678416778, 87.09375 109.5 M87.09375 109.5 C32.049053163595076 109.5, -22.995643672809848 109.5, -87.09375 109.5 M87.09375 109.5 C39.20834491828422 109.5, -8.677060163431563 109.5, -87.09375 109.5 M-87.09375 109.5 C-87.09375 45.41494943966197, -87.09375 -18.670101120676065, -87.09375 -109.5 M-87.09375 109.5 C-87.09375 24.36171842938431, -87.09375 -60.77656314123138, -87.09375 -109.5" stroke="#218bff" stroke-width="1.3" fill="none" stroke-dasharray="0 0" style=""/></g><g class="annotation-group text" transform="translate(0, -85.5)"/><g class="label-group text" transform="translate(-25.625, -85.5)"><g class="label" style="font-weight: bolder" transform="translate(0,-10.5)"><foreignObject width="51.25" height="21"><div xmlns="http://www.w3.org/1999/xhtml" style="display: table-cell; white-space: nowrap; line-height: 1.5; max-width: 100px; text-align: center;"><span class="nodeLabel markdown-node-label" style=""><p>Product</p></span></div></foreignObject></g></g><g class="members-group text" transform="translate(-75.09375, -40.5)"><g class="label" style="" transform="translate(0,-10.5)"><foreignObject width="59.75" height="21"><div xmlns="http://www.w3.org/1999/xhtml" style="display: table-cell; white-space: nowrap; line-height: 1.5; max-width: 119px; text-align: center;"><span class="nodeLabel markdown-node-label" style=""><p>+String id</p></span></div></foreignObject></g><g class="label" style="" transform="translate(0,10.5)"><foreignObject width="82.21875" height="21"><div xmlns="http://www.w3.org/1999/xhtml" style="display: table-cell; white-space: nowrap; line-height: 1.5; max-width: 141px; text-align: center;"><span class="nodeLabel markdown-node-label" style=""><p>+String name</p></span></div></foreignObject></g><g class="label" style="" transform="translate(0,31.5)"><foreignObject width="83" height="21"><div xmlns="http://www.w3.org/1999/xhtml" style="display: table-cell; white-space: nowrap; line-height: 1.5; max-width: 145px; text-align: center;"><span class="nodeLabel markdown-node-label" style=""><p>+Money price</p></span></div></foreignObject></g><g class="label" style="" transform="translate(0,52.5)"><foreignObject width="98.21875" height="21"><div xmlns="http://www.w3.org/1999/xhtml" style="display: table-cell; white-space: nowrap; line-height: 1.5; max-width: 157px; text-align: center;"><span class="nodeLabel markdown-node-label" style=""><p>+int stockCount</p></span></div></foreignObject></g></g><g class="methods-group text" transform="translate(-75.09375, 67.5)"><g class="label" style="" transform="translate(0,-10.5)"><foreignObject width="122.203125" height="21"><div xmlns="http://www.w3.org/1999/xhtml" style="display: table-cell; white-space: nowrap; line-height: 1.5; max-width: 184px; text-align: center;"><span class="nodeLabel markdown-node-label" style=""><p>+getPrice() : Money</p></span></div></foreignObject></g><g class="label" style="" transform="translate(0,10.5)"><foreignObject width="124.5625" height="21"><div xmlns="http://www.w3.org/1999/xhtml" style="display: table-cell; white-space: nowrap; line-height: 1.5; max-width: 187px; text-align: center;"><span class="nodeLabel markdown-node-label" style=""><p>+isAvailable() : bool</p></span></div></foreignObject></g></g><g class="divider" style=""><path d="M-87.09375 -64.5 C-30.6856594797309 -64.5, 25.722431040538197 -64.5, 87.09375 -64.5 M-87.09375 -64.5 C-35.49906199634101 -64.5, 16.095626007317975 -64.5, 87.09375 -64.5" stroke="#218bff" stroke-width="1.3" fill="none" stroke-dasharray="0 0" style=""/></g><g class="divider" style=""><path d="M-87.09375 43.5 C-41.84932106891709 43.5, 3.3951078621658155 43.5, 87.09375 43.5 M-87.09375 43.5 C-25.089224364446437 43.5, 36.915301271107126 43.5, 87.09375 43.5" stroke="#218bff" stroke-width="1.3" fill="none" stroke-dasharray="0 0" style=""/></g></g><g class="node default" id="classId-Order-2" transform="translate(346.71484375, 355)"><g class="basic label-container"><path d="M-113.30078125 -99 L113.30078125 -99 L113.30078125 99 L-113.30078125 99" stroke="none" stroke-width="0" fill="#ddf4ff" style=""/><path d="M-113.30078125 -99 C-51.6979762269247 -99, 9.904828796150596 -99, 113.30078125 -99 M-113.30078125 -99 C-28.86094548568863 -99, 55.57889027862274 -99, 113.30078125 -99 M113.30078125 -99 C113.30078125 -25.1454789333675, 113.30078125 48.709042133265, 113.30078125 99 M113.30078125 -99 C113.30078125 -35.629000512581285, 113.30078125 27.74199897483743, 113.30078125 99 M113.30078125 99 C67.88246261950798 99, 22.464143989015938 99, -113.30078125 99 M113.30078125 99 C37.67428931280175 99, -37.952202624396506 99, -113.30078125 99 M-113.30078125 99 C-113.30078125 59.18017926230329, -113.30078125 19.360358524606582, -113.30078125 -99 M-113.30078125 99 C-113.30078125 26.437519583033847, -113.30078125 -46.124960833932306, -113.30078125 -99" stroke="#218bff" stroke-width="1.3" fill="none" stroke-dasharray="0 0" style=""/></g><g class="annotation-group text" transform="translate(0, -75)"/><g class="label-group text" transform="translate(-18.9921875, -75)"><g class="label" style="font-weight: bolder" transform="translate(0,-10.5)"><foreignObject width="37.984375" height="21"><div xmlns="http://www.w3.org/1999/xhtml" style="display: table-cell; white-space: nowrap; line-height: 1.5; max-width: 87px; text-align: center;"><span class="nodeLabel markdown-node-label" style=""><p>Order</p></span></div></foreignObject></g></g><g class="members-group text" transform="translate(-101.30078125, -30)"><g class="label" style="" transform="translate(0,-10.5)"><foreignObject width="59.75" height="21"><div xmlns="http://www.w3.org/1999/xhtml" style="display: table-cell; white-space: nowrap; line-height: 1.5; max-width: 119px; text-align: center;"><span class="nodeLabel markdown-node-label" style=""><p>+String id</p></span></div></foreignObject></g><g class="label" style="" transform="translate(0,10.5)"><foreignObject width="133.65625" height="21"><div xmlns="http://www.w3.org/1999/xhtml" style="display: table-cell; white-space: nowrap; line-height: 1.5; max-width: 193px; text-align: center;"><span class="nodeLabel markdown-node-label" style=""><p>+DateTime createdAt</p></span></div></foreignObject></g><g class="label" style="" transform="translate(0,31.5)"><foreignObject width="123.265625" height="21"><div xmlns="http://www.w3.org/1999/xhtml" style="display: table-cell; white-space: nowrap; line-height: 1.5; max-width: 180px; text-align: center;"><span class="nodeLabel markdown-node-label" style=""><p>+OrderStatus status</p></span></div></foreignObject></g></g><g class="methods-group text" transform="translate(-101.30078125, 57)"><g class="label" style="" transform="translate(0,-10.5)"><foreignObject width="183.609375" height="21"><div xmlns="http://www.w3.org/1999/xhtml" style="display: table-cell; white-space: nowrap; line-height: 1.5; max-width: 242px; text-align: center;"><span class="nodeLabel markdown-node-label" style=""><p>+addItem(Product, int) : void</p></span></div></foreignObject></g><g class="label" style="" transform="translate(0,10.5)"><foreignObject width="121.984375" height="21"><div xmlns="http://www.w3.org/1999/xhtml" style="display: table-cell; white-space: nowrap; line-height: 1.5; max-width: 184px; text-align: center;"><span class="nodeLabel markdown-node-label" style=""><p>+getTotal() : Money</p></span></div></foreignObject></g></g><g class="divider" style=""><path d="M-113.30078125 -54 C-48.57843275422168 -54, 16.14391574155664 -54, 113.30078125 -54 M-113.30078125 -54 C-46.98217593305701 -54, 19.336429383885985 -54, 113.30078125 -54" stroke="#218bff" stroke-width="1.3" fill="none" stroke-dasharray="0 0" style=""/></g><g class="divider" style=""><path d="M-113.30078125 33 C-28.82851831382861 33, 55.64374462234278 33, 113.30078125 33 M-113.30078125 33 C-47.20090332689698 33, 18.898974596206045 33, 113.30078125 33" stroke="#218bff" stroke-width="1.3" fill="none" stroke-dasharray="0 0" style=""/></g></g><g class="node default" id="classId-OrderItem-3" transform="translate(346.71484375, 585)"><g class="basic label-container"><path d="M-100.55078125 -78 L100.55078125 -78 L100.55078125 78 L-100.55078125 78" stroke="none" stroke-width="0" fill="#ddf4ff" style=""/><path d="M-100.55078125 -78 C-27.54527108386604 -78, 45.46023908226792 -78, 100.55078125 -78 M-100.55078125 -78 C-52.84948408328971 -78, -5.148186916579419 -78, 100.55078125 -78 M100.55078125 -78 C100.55078125 -34.9935629225568, 100.55078125 8.012874154886404, 100.55078125 78 M100.55078125 -78 C100.55078125 -35.050750765179956, 100.55078125 7.898498469640089, 100.55078125 78 M100.55078125 78 C49.00325179903074 78, -2.544277651938515 78, -100.55078125 78 M100.55078125 78 C59.49147576142533 78, 18.432170272850655 78, -100.55078125 78 M-100.55078125 78 C-100.55078125 21.581933777687283, -100.55078125 -34.836132444625434, -100.55078125 -78 M-100.55078125 78 C-100.55078125 29.865474347682998, -100.55078125 -18.269051304634004, -100.55078125 -78" stroke="#218bff" stroke-width="1.3" fill="none" stroke-dasharray="0 0" style=""/></g><g class="annotation-group text" transform="translate(0, -54)"/><g class="label-group text" transform="translate(-33.7578125, -54)"><g class="label" style="font-weight: bolder" transform="translate(0,-10.5)"><foreignObject width="67.515625" height="21"><div xmlns="http://www.w3.org/1999/xhtml" style="display: table-cell; white-space: nowrap; line-height: 1.5; max-width: 117px; text-align: center;"><span class="nodeLabel markdown-node-label" style=""><p>OrderItem</p></span></div></foreignObject></g></g><g class="members-group text" transform="translate(-88.55078125, -9)"><g class="label" style="" transform="translate(0,-10.5)"><foreignObject width="81.21875" height="21"><div xmlns="http://www.w3.org/1999/xhtml" style="display: table-cell; white-space: nowrap; line-height: 1.5; max-width: 137px; text-align: center;"><span class="nodeLabel markdown-node-label" style=""><p>+int quantity</p></span></div></foreignObject></g><g class="label" style="" transform="translate(0,10.5)"><foreignObject width="107.1875" height="21"><div xmlns="http://www.w3.org/1999/xhtml" style="display: table-cell; white-space: nowrap; line-height: 1.5; max-width: 171px; text-align: center;"><span class="nodeLabel markdown-node-label" style=""><p>+Money unitPrice</p></span></div></foreignObject></g></g><g class="methods-group text" transform="translate(-88.55078125, 57)"><g class="label" style="" transform="translate(0,-10.5)"><foreignObject width="143.34375" height="21"><div xmlns="http://www.w3.org/1999/xhtml" style="display: table-cell; white-space: nowrap; line-height: 1.5; max-width: 205px; text-align: center;"><span class="nodeLabel markdown-node-label" style=""><p>+getSubtotal() : Money</p></span></div></foreignObject></g></g><g class="divider" style=""><path d="M-100.55078125 -33 C-55.92034463502552 -33, -11.289908020051044 -33, 100.55078125 -33 M-100.55078125 -33 C-33.8340639920977 -33, 32.882653265804606 -33, 100.55078125 -33" stroke="#218bff" stroke-width="1.3" fill="none" stroke-dasharray="0 0" style=""/></g><g class="divider" style=""><path d="M-100.55078125 33 C-26.145181525257755 33, 48.26041819948449 33, 100.55078125 33 M-100.55078125 33 C-26.856185367163704 33, 46.83841051567259 33, 100.55078125 33" stroke="#218bff" stroke-width="1.3" fill="none" stroke-dasharray="0 0" style=""/></g></g><g class="node default" id="classId-Customer-4" transform="translate(346.71484375, 96.5)"><g class="basic label-container"><path d="M-108.9609375 -88.5 L108.9609375 -88.5 L108.9609375 88.5 L-108.9609375 88.5" stroke="none" stroke-width="0" fill="#ddf4ff" style=""/><path d="M-108.9609375 -88.5 C-40.79087238675194 -88.5, 27.379192726496115 -88.5, 108.9609375 -88.5 M-108.9609375 -88.5 C-45.64878275491472 -88.5, 17.66337199017056 -88.5, 108.9609375 -88.5 M108.9609375 -88.5 C108.9609375 -27.947199550174403, 108.9609375 32.60560089965119, 108.9609375 88.5 M108.9609375 -88.5 C108.9609375 -50.94173321422378, 108.9609375 -13.383466428447562, 108.9609375 88.5 M108.9609375 88.5 C59.29805346277622 88.5, 9.635169425552434 88.5, -108.9609375 88.5 M108.9609375 88.5 C29.70747489260974 88.5, -49.54598771478052 88.5, -108.9609375 88.5 M-108.9609375 88.5 C-108.9609375 26.6098116404766, -108.9609375 -35.2803767190468, -108.9609375 -88.5 M-108.9609375 88.5 C-108.9609375 40.260191508055826, -108.9609375 -7.979616983888349, -108.9609375 -88.5" stroke="#218bff" stroke-width="1.3" fill="none" stroke-dasharray="0 0" style=""/></g><g class="annotation-group text" transform="translate(0, -64.5)"/><g class="label-group text" transform="translate(-31.203125, -64.5)"><g class="label" style="font-weight: bolder" transform="translate(0,-10.5)"><foreignObject width="62.40625" height="21"><div xmlns="http://www.w3.org/1999/xhtml" style="display: table-cell; white-space: nowrap; line-height: 1.5; max-width: 112px; text-align: center;"><span class="nodeLabel markdown-node-label" style=""><p>Customer</p></span></div></foreignObject></g></g><g class="members-group text" transform="translate(-96.9609375, -19.5)"><g class="label" style="" transform="translate(0,-10.5)"><foreignObject width="59.75" height="21"><div xmlns="http://www.w3.org/1999/xhtml" style="display: table-cell; white-space: nowrap; line-height: 1.5; max-width: 119px; text-align: center;"><span class="nodeLabel markdown-node-label" style=""><p>+String id</p></span></div></foreignObject></g><g class="label" style="" transform="translate(0,10.5)"><foreignObject width="82.6875" height="21"><div xmlns="http://www.w3.org/1999/xhtml" style="display: table-cell; white-space: nowrap; line-height: 1.5; max-width: 142px; text-align: center;"><span class="nodeLabel markdown-node-label" style=""><p>+String email</p></span></div></foreignObject></g><g class="label" style="" transform="translate(0,31.5)"><foreignObject width="82.21875" height="21"><div xmlns="http://www.w3.org/1999/xhtml" style="display: table-cell; white-space: nowrap; line-height: 1.5; max-width: 141px; text-align: center;"><span class="nodeLabel markdown-node-label" style=""><p>+String name</p></span></div></foreignObject></g></g><g class="methods-group text" transform="translate(-96.9609375, 67.5)"><g class="label" style="" transform="translate(0,-10.5)"><foreignObject width="162.71875" height="21"><div xmlns="http://www.w3.org/1999/xhtml" style="display: table-cell; white-space: nowrap; line-height: 1.5; max-width: 223px; text-align: center;"><span class="nodeLabel markdown-node-label" style=""><p>+placeOrder(Order) : void</p></span></div></foreignObject></g></g><g class="divider" style=""><path d="M-108.9609375 -43.5 C-30.735285222343038 -43.5, 47.490367055313925 -43.5, 108.9609375 -43.5 M-108.9609375 -43.5 C-52.78224981479771 -43.5, 3.396437870404583 -43.5, 108.9609375 -43.5" stroke="#218bff" stroke-width="1.3" fill="none" stroke-dasharray="0 0" style=""/></g><g class="divider" style=""><path d="M-108.9609375 43.5 C-57.43861627860039 43.5, -5.916295057200784 43.5, 108.9609375 43.5 M-108.9609375 43.5 C-41.13277912342261 43.5, 26.695379253154783 43.5, 108.9609375 43.5" stroke="#218bff" stroke-width="1.3" fill="none" stroke-dasharray="0 0" style=""/></g></g></g></g></g></svg>