<svg id="my-svg" width="100%" xmlns="http://www.w3.org/2000/svg" xmlns:xlink="http://www.w3.org/1999/xlink" class="requirementDiagram" style="max-width: 1095.08px; background-color: white;" viewBox="0 0 1095.078125 656" role="graphics-document document" aria-roledescription="requirement"><style>#my-svg{font-family:"trebuchet ms",verdana,arial,sans-serif;font-size:14px;fill:#1f2328;}@keyframes edge-animation-frame{from{stroke-dashoffset:0;}}@keyframes dash{to{stroke-dashoffset:0;}}#my-svg .edge-animation-slow{stroke-dasharray:9,5!important;stroke-dashoffset:900;animation:dash 50s linear infinite;stroke-linecap:round;}#my-svg .edge-animation-fast{stroke-dasharray:9,5!important;stroke-dashoffset:900;animation:dash 20s linear infinite;stroke-linecap:round;}#my-svg .error-icon{fill:#fff8c5;}#my-svg .error-text{fill:#00073a;stroke:#00073a;}#my-svg .edge-thickness-normal{stroke-width:1px;}#my-svg .edge-thickness-thick{stroke-width:3.5px;}#my-svg .edge-pattern-solid{stroke-dasharray:0;}#my-svg .edge-thickness-invisible{stroke-width:0;fill:none;}#my-svg .edge-pattern-dashed{stroke-dasharray:3;}#my-svg .edge-pattern-dotted{stroke-dasharray:2;}#my-svg .marker{fill:#656d76;stroke:#656d76;}#my-svg .marker.cross{stroke:#656d76;}#my-svg svg{font-family:"trebuchet ms",verdana,arial,sans-serif;font-size:14px;}#my-svg p{margin:0;}#my-svg marker{fill:#656d76;stroke:#656d76;}#my-svg marker.cross{stroke:#656d76;}#my-svg svg{font-family:"trebuchet ms",verdana,arial,sans-serif;font-size:14px;}#my-svg .reqBox{fill:#ddf4ff;fill-opacity:1.0;stroke:#218bff;stroke-width:1;}#my-svg .reqTitle,#my-svg .reqLabel{fill:#1f2328;}#my-svg .reqLabelBox{fill:#dafbe1;fill-opacity:1.0;}#my-svg .req-title-line{stroke:#218bff;stroke-width:1;}#my-svg .relationshipLine{stroke:#656d76;stroke-width:1;}#my-svg .relationshipLabel{fill:#1f2328;}#my-svg .divider{stroke:#218bff;stroke-width:1;}#my-svg .label{font-family:"trebuchet ms",verdana,arial,sans-serif;color:#1f2328;}#my-svg .label text,#my-svg span{fill:#1f2328;color:#1f2328;}#my-svg .labelBkg{background-color:#dafbe1;}#my-svg :root{--mermaid-font-family:"trebuchet ms",verdana,arial,sans-serif;}</style><g><defs><marker id="my-svg_requirement-requirement_containsStart" refX="0" refY="10" markerWidth="20" markerHeight="20" orient="auto"><g><circle cx="10" cy="10" r="9" fill="none"/><line x1="1" x2="19" y1="10" y2="10"/><line y1="1" y2="19" x1="10" x2="10"/></g></marker></defs><defs><marker id="my-svg_requirement-requirement_arrowEnd" refX="20" refY="10" markerWidth="20" markerHeight="20" orient="auto"><path d="M0,0&#10;      L20,10&#10;      M20,10&#10;      L0,20"/></marker></defs><g class="root"><g class="clusters"/><g class="edgePaths"><path d="M186.859,411L186.859,416.917C186.859,422.833,186.859,434.667,217.201,450.235C247.542,465.803,308.224,485.107,338.565,494.759L368.906,504.41" id="resetFlow-businessNeed-0" class="edge-thickness-normal edge-pattern-dashed relationshipLine" style="fill:none;stroke-dasharray: 10,7;;;fill:none;stroke-dasharray: 10,7" data-edge="true" data-et="edge" data-id="resetFlow-businessNeed-0" data-points="W3sieCI6MTg2Ljg1OTM3NSwieSI6NDExfSx7IngiOjE4Ni44NTkzNzUsInkiOjQ0Ni41fSx7IngiOjM2OC45MDYyNSwieSI6NTA0LjQxMDQ2OTM1OTUwNjc1fV0=" marker-end="url(#my-svg_requirement-requirement_arrowEnd)"/><path d="M559.375,411L559.375,416.917C559.375,422.833,559.375,434.667,559.375,446.5C559.375,458.333,559.375,470.167,559.375,476.083L559.375,482" id="tokenExpiry-businessNeed-0" class="edge-thickness-normal edge-pattern-dashed relationshipLine" style="fill:none;stroke-dasharray: 10,7;;;fill:none;stroke-dasharray: 10,7" data-edge="true" data-et="edge" data-id="tokenExpiry-businessNeed-0" data-points="W3sieCI6NTU5LjM3NSwieSI6NDExfSx7IngiOjU1OS4zNzUsInkiOjQ0Ni41fSx7IngiOjU1OS4zNzUsInkiOjQ4Mn1d" marker-end="url(#my-svg_requirement-requirement_arrowEnd)"/><path d="M920.055,411L920.055,416.917C920.055,422.833,920.055,434.667,891.686,449.904C863.318,465.141,806.581,483.781,778.212,493.102L749.844,502.422" id="hashAlgorithm-businessNeed-0" class="edge-thickness-normal edge-pattern-dashed relationshipLine" style="fill:none;stroke-dasharray: 10,7;;;fill:none;stroke-dasharray: 10,7" data-edge="true" data-et="edge" data-id="hashAlgorithm-businessNeed-0" data-points="W3sieCI6OTIwLjA1NDY4NzUsInkiOjQxMX0seyJ4Ijo5MjAuMDU0Njg3NSwieSI6NDQ2LjV9LHsieCI6NzQ5Ljg0Mzc1LCJ5Ijo1MDIuNDIyMTg0Njc3MzY2OTR9XQ==" marker-end="url(#my-svg_requirement-requirement_arrowEnd)"/><path d="M186.859,174L186.859,179.917C186.859,185.833,186.859,197.667,186.859,209.5C186.859,221.333,186.859,233.167,186.859,239.083L186.859,245" id="emailDelivery-resetFlow-0" class="edge-thickness-normal edge-pattern-dashed relationshipLine" style="fill:none;stroke-dasharray: 10,7;;;fill:none;stroke-dasharray: 10,7" data-edge="true" data-et="edge" data-id="emailDelivery-resetFlow-0" data-points="W3sieCI6MTg2Ljg1OTM3NSwieSI6MTc0fSx7IngiOjE4Ni44NTkzNzUsInkiOjIwOS41fSx7IngiOjE4Ni44NTkzNzUsInkiOjI0NX1d" marker-end="url(#my-svg_requirement-requirement_arrowEnd)"/></g><g class="edgeLabels"><g class="edgeLabel" transform="translate(186.859375, 446.5)"><g class="label" data-id="resetFlow-businessNeed-0" transform="translate(-37.203125, -10.5)"><foreignObject width="74.40625" height="21"><div xmlns="http://www.w3.org/1999/xhtml" class="labelBkg" style="display: table-cell; white-space: nowrap; line-height: 1.5; max-width: 200px; text-align: center;"><span class="edgeLabel"><p>&lt;&lt;derives&gt;&gt;</p></span></div></foreignObject></g></g><g class="edgeLabel" transform="translate(559.375, 446.5)"><g class="label" data-id="tokenExpiry-businessNeed-0" transform="translate(-37.203125, -10.5)"><foreignObject width="74.40625" height="21"><div xmlns="http://www.w3.org/1999/xhtml" class="labelBkg" style="display: table-cell; white-space: nowrap; line-height: 1.5; max-width: 200px; text-align: center;"><span class="edgeLabel"><p>&lt;&lt;derives&gt;&gt;</p></span></div></foreignObject></g></g><g class="edgeLabel" transform="translate(920.0546875, 446.5)"><g class="label" data-id="hashAlgorithm-businessNeed-0" transform="translate(-40.0390625, -10.5)"><foreignObject width="80.078125" height="21"><div xmlns="http://www.w3.org/1999/xhtml" class="labelBkg" style="display: table-cell; white-space: nowrap; line-height: 1.5; max-width: 200px; text-align: center;"><span class="edgeLabel"><p>&lt;&lt;satisfies&gt;&gt;</p></span></div></foreignObject></g></g><g class="edgeLabel" transform="translate(186.859375, 209.5)"><g class="label" data-id="emailDelivery-resetFlow-0" transform="translate(-36.2890625, -10.5)"><foreignObject width="72.578125" height="21"><div xmlns="http://www.w3.org/1999/xhtml" class="labelBkg" style="display: table-cell; white-space: nowrap; line-height: 1.5; max-width: 200px; text-align: center;"><span class="edgeLabel"><p>&lt;&lt;refines&gt;&gt;</p></span></div></foreignObject></g></g></g><g class="nodes"><g class="node default" id="businessNeed" transform="translate(559.375, 565)"><g class="basic label-container" style=""><path d="M-190.46875 -83 L190.46875 -83 L190.46875 83 L-190.46875 83" stroke="none" stroke-width="0" fill="#ddf4ff"/><path d="M-190.46875 -83 C-74.55006204550746 -83, 41.36862590898508 -83, 190.46875 -83 M-190.46875 -83 C-80.83702259146375 -83, 28.7947048170725 -83, 190.46875 -83 M190.46875 -83 C190.46875 -39.274247402686846, 190.46875 4.451505194626307, 190.46875 83 M190.46875 -83 C190.46875 -42.07689036482258, 190.46875 -1.1537807296451632, 190.46875 83 M190.46875 83 C97.93629722519742 83, 5.403844450394843 83, -190.46875 83 M190.46875 83 C56.09342513022432 83, -78.28189973955136 83, -190.46875 83 M-190.46875 83 C-190.46875 40.89307962669121, -190.46875 -1.2138407466175778, -190.46875 -83 M-190.46875 83 C-190.46875 23.026999620613303, -190.46875 -36.946000758773394, -190.46875 -83" stroke="#218bff" stroke-width="1.3" fill="none" stroke-dasharray="0 0"/></g><g class="label" style="" transform="translate(-54.78125, -73.5)"><foreignObject width="109.5625" height="21"><div xmlns="http://www.w3.org/1999/xhtml" style="display: table-cell; white-space: nowrap; line-height: 1.5; max-width: 243px; text-align: center;"><span class="nodeLabel markdown-node-label"><p>&lt;&lt;Requirement&gt;&gt;</p></span></div></foreignObject></g><g class="label" style="; font-weight: bold;" transform="translate(-44.28125, -52.5)"><foreignObject width="88.5625" height="21"><div style="font-weight: bold; display: table-cell; white-space: nowrap; line-height: 1.5; max-width: 138px; text-align: center;" xmlns="http://www.w3.org/1999/xhtml"><span style="; font-weight: bold;" class="nodeLabel markdown-node-label"><p>businessNeed</p></span></div></foreignObject></g><g class="label" style="" transform="translate(-180.46875, -11.5)"><foreignObject width="65.078125" height="21"><div xmlns="http://www.w3.org/1999/xhtml" style="display: table-cell; white-space: nowrap; line-height: 1.5; max-width: 126px; text-align: center;"><span class="nodeLabel markdown-node-label"><p>ID: BR-001</p></span></div></foreignObject></g><g class="label" style="" transform="translate(-180.46875, 9.5)"><foreignObject width="360.9375" height="21"><div xmlns="http://www.w3.org/1999/xhtml" style="display: table-cell; white-space: nowrap; line-height: 1.5; max-width: 414px; text-align: center;"><span class="nodeLabel markdown-node-label"><p>Text: Users must be able to reset their password securely</p></span></div></foreignObject></g><g class="label" style="" transform="translate(-180.46875, 30.5)"><foreignObject width="62.0625" height="21"><div xmlns="http://www.w3.org/1999/xhtml" style="display: table-cell; white-space: nowrap; line-height: 1.5; max-width: 120px; text-align: center;"><span class="nodeLabel markdown-node-label"><p>Risk: High</p></span></div></foreignObject></g><g class="label" style="" transform="translate(-180.46875, 51.5)"><foreignObject width="146.203125" height="21"><div xmlns="http://www.w3.org/1999/xhtml" style="display: table-cell; white-space: nowrap; line-height: 1.5; max-width: 201px; text-align: center;"><span class="nodeLabel markdown-node-label"><p>Verification: Inspection</p></span></div></foreignObject></g><g style=""><path d="M-190.46875 -21 C-96.14777132593633 -21, -1.8267926518726654 -21, 190.46875 -21 M-190.46875 -21 C-47.41246333758687 -21, 95.64382332482626 -21, 190.46875 -21" stroke="#218bff" stroke-width="1.3" fill="none" stroke-dasharray="0 0"/></g></g><g class="node default" id="resetFlow" transform="translate(186.859375, 328)"><g class="basic label-container" style=""><path d="M-178.859375 -83 L178.859375 -83 L178.859375 83 L-178.859375 83" stroke="none" stroke-width="0" fill="#ddf4ff"/><path d="M-178.859375 -83 C-36.32822697504608 -83, 106.20292104990784 -83, 178.859375 -83 M-178.859375 -83 C-106.38380460387462 -83, -33.908234207749246 -83, 178.859375 -83 M178.859375 -83 C178.859375 -42.08577132289582, 178.859375 -1.1715426457916465, 178.859375 83 M178.859375 -83 C178.859375 -41.06118958934678, 178.859375 0.8776208213064365, 178.859375 83 M178.859375 83 C52.60857238448277 83, -73.64223023103446 83, -178.859375 83 M178.859375 83 C86.56438151913699 83, -5.7306119617260265 83, -178.859375 83 M-178.859375 83 C-178.859375 29.017356127287208, -178.859375 -24.965287745425584, -178.859375 -83 M-178.859375 83 C-178.859375 31.522876249097443, -178.859375 -19.954247501805114, -178.859375 -83" stroke="#218bff" stroke-width="1.3" fill="none" stroke-dasharray="0 0"/></g><g class="label" style="" transform="translate(-89.7734375, -73.5)"><foreignObject width="179.546875" height="21"><div xmlns="http://www.w3.org/1999/xhtml" style="display: table-cell; white-space: nowrap; line-height: 1.5; max-width: 315px; text-align: center;"><span class="nodeLabel markdown-node-label"><p>&lt;&lt;Functional Requirement&gt;&gt;</p></span></div></foreignObject></g><g class="label" style="; font-weight: bold;" transform="translate(-32.4296875, -52.5)"><foreignObject width="64.859375" height="21"><div style="font-weight: bold; display: table-cell; white-space: nowrap; line-height: 1.5; max-width: 113px; text-align: center;" xmlns="http://www.w3.org/1999/xhtml"><span style="; font-weight: bold;" class="nodeLabel markdown-node-label"><p>resetFlow</p></span></div></foreignObject></g><g class="label" style="" transform="translate(-168.859375, -11.5)"><foreignObject width="64.515625" height="21"><div xmlns="http://www.w3.org/1999/xhtml" style="display: table-cell; white-space: nowrap; line-height: 1.5; max-width: 124px; text-align: center;"><span class="nodeLabel markdown-node-label"><p>ID: FR-001</p></span></div></foreignObject></g><g class="label" style="" transform="translate(-168.859375, 9.5)"><foreignObject width="337.71875" height="21"><div xmlns="http://www.w3.org/1999/xhtml" style="display: table-cell; white-space: nowrap; line-height: 1.5; max-width: 394px; text-align: center;"><span class="nodeLabel markdown-node-label"><p>Text: System sends a time-limited reset link via email</p></span></div></foreignObject></g><g class="label" style="" transform="translate(-168.859375, 30.5)"><foreignObject width="82.859375" height="21"><div xmlns="http://www.w3.org/1999/xhtml" style="display: table-cell; white-space: nowrap; line-height: 1.5; max-width: 142px; text-align: center;"><span class="nodeLabel markdown-node-label"><p>Risk: Medium</p></span></div></foreignObject></g><g class="label" style="" transform="translate(-168.859375, 51.5)"><foreignObject width="173.640625" height="21"><div xmlns="http://www.w3.org/1999/xhtml" style="display: table-cell; white-space: nowrap; line-height: 1.5; max-width: 229px; text-align: center;"><span class="nodeLabel markdown-node-label"><p>Verification: Demonstration</p></span></div></foreignObject></g><g style=""><path d="M-178.859375 -21 C-66.4714809473537 -21, 45.916413105292605 -21, 178.859375 -21 M-178.859375 -21 C-65.27942704697554 -21, 48.30052090604892 -21, 178.859375 -21" stroke="#218bff" stroke-width="1.3" fill="none" stroke-dasharray="0 0"/></g></g><g class="node default" id="tokenExpiry" transform="translate(559.375, 328)"><g class="basic label-container" style=""><path d="M-143.65625 -83 L143.65625 -83 L143.65625 83 L-143.65625 83" stroke="none" stroke-width="0" fill="#ddf4ff"/><path d="M-143.65625 -83 C-76.58580216068741 -83, -9.515354321374815 -83, 143.65625 -83 M-143.65625 -83 C-69.08069855854173 -83, 5.494852882916547 -83, 143.65625 -83 M143.65625 -83 C143.65625 -36.75687516395114, 143.65625 9.486249672097713, 143.65625 83 M143.65625 -83 C143.65625 -28.27285274490719, 143.65625 26.45429451018562, 143.65625 83 M143.65625 83 C41.12603170703392 83, -61.404186585932166 83, -143.65625 83 M143.65625 83 C63.60780014997668 83, -16.440649700046635 83, -143.65625 83 M-143.65625 83 C-143.65625 25.98985180599751, -143.65625 -31.02029638800498, -143.65625 -83 M-143.65625 83 C-143.65625 44.856018443387136, -143.65625 6.712036886774271, -143.65625 -83" stroke="#218bff" stroke-width="1.3" fill="none" stroke-dasharray="0 0"/></g><g class="label" style="" transform="translate(-89.7734375, -73.5)"><foreignObject width="179.546875" height="21"><div xmlns="http://www.w3.org/1999/xhtml" style="display: table-cell; white-space: nowrap; line-height: 1.5; max-width: 315px; text-align: center;"><span class="nodeLabel markdown-node-label"><p>&lt;&lt;Functional Requirement&gt;&gt;</p></span></div></foreignObject></g><g class="label" style="; font-weight: bold;" transform="translate(-39.46875, -52.5)"><foreignObject width="78.9375" height="21"><div style="font-weight: bold; display: table-cell; white-space: nowrap; line-height: 1.5; max-width: 129px; text-align: center;" xmlns="http://www.w3.org/1999/xhtml"><span style="; font-weight: bold;" class="nodeLabel markdown-node-label"><p>tokenExpiry</p></span></div></foreignObject></g><g class="label" style="" transform="translate(-133.65625, -11.5)"><foreignObject width="64.515625" height="21"><div xmlns="http://www.w3.org/1999/xhtml" style="display: table-cell; white-space: nowrap; line-height: 1.5; max-width: 124px; text-align: center;"><span class="nodeLabel markdown-node-label"><p>ID: FR-002</p></span></div></foreignObject></g><g class="label" style="" transform="translate(-133.65625, 9.5)"><foreignObject width="267.3125" height="21"><div xmlns="http://www.w3.org/1999/xhtml" style="display: table-cell; white-space: nowrap; line-height: 1.5; max-width: 320px; text-align: center;"><span class="nodeLabel markdown-node-label"><p>Text: Reset tokens expire after 15 minutes</p></span></div></foreignObject></g><g class="label" style="" transform="translate(-133.65625, 30.5)"><foreignObject width="82.859375" height="21"><div xmlns="http://www.w3.org/1999/xhtml" style="display: table-cell; white-space: nowrap; line-height: 1.5; max-width: 142px; text-align: center;"><span class="nodeLabel markdown-node-label"><p>Risk: Medium</p></span></div></foreignObject></g><g class="label" style="" transform="translate(-133.65625, 51.5)"><foreignObject width="106.90625" height="21"><div xmlns="http://www.w3.org/1999/xhtml" style="display: table-cell; white-space: nowrap; line-height: 1.5; max-width: 160px; text-align: center;"><span class="nodeLabel markdown-node-label"><p>Verification: Test</p></span></div></foreignObject></g><g style=""><path d="M-143.65625 -21 C-59.338983490775064 -21, 24.978283018449872 -21, 143.65625 -21 M-143.65625 -21 C-41.008059912206974 -21, 61.64013017558605 -21, 143.65625 -21" stroke="#218bff" stroke-width="1.3" fill="none" stroke-dasharray="0 0"/></g></g><g class="node default" id="emailDelivery" transform="translate(186.859375, 91)"><g class="basic label-container" style=""><path d="M-153.78125 -83 L153.78125 -83 L153.78125 83 L-153.78125 83" stroke="none" stroke-width="0" fill="#ddf4ff"/><path d="M-153.78125 -83 C-32.04771108283724 -83, 89.68582783432552 -83, 153.78125 -83 M-153.78125 -83 C-74.82014880644947 -83, 4.140952387101066 -83, 153.78125 -83 M153.78125 -83 C153.78125 -19.40040596710275, 153.78125 44.1991880657945, 153.78125 83 M153.78125 -83 C153.78125 -34.60238909758063, 153.78125 13.795221804838746, 153.78125 83 M153.78125 83 C59.79953276412594 83, -34.182184471748116 83, -153.78125 83 M153.78125 83 C52.98887241658775 83, -47.80350516682449 83, -153.78125 83 M-153.78125 83 C-153.78125 26.93942865150531, -153.78125 -29.12114269698938, -153.78125 -83 M-153.78125 83 C-153.78125 17.47703361707933, -153.78125 -48.04593276584134, -153.78125 -83" stroke="#218bff" stroke-width="1.3" fill="none" stroke-dasharray="0 0"/></g><g class="label" style="" transform="translate(-96.6640625, -73.5)"><foreignObject width="193.328125" height="21"><div xmlns="http://www.w3.org/1999/xhtml" style="display: table-cell; white-space: nowrap; line-height: 1.5; max-width: 329px; text-align: center;"><span class="nodeLabel markdown-node-label"><p>&lt;&lt;Performance Requirement&gt;&gt;</p></span></div></foreignObject></g><g class="label" style="; font-weight: bold;" transform="translate(-45.0390625, -52.5)"><foreignObject width="90.078125" height="21"><div style="font-weight: bold; display: table-cell; white-space: nowrap; line-height: 1.5; max-width: 142px; text-align: center;" xmlns="http://www.w3.org/1999/xhtml"><span style="; font-weight: bold;" class="nodeLabel markdown-node-label"><p>emailDelivery</p></span></div></foreignObject></g><g class="label" style="" transform="translate(-143.78125, -11.5)"><foreignObject width="73.453125" height="21"><div xmlns="http://www.w3.org/1999/xhtml" style="display: table-cell; white-space: nowrap; line-height: 1.5; max-width: 136px; text-align: center;"><span class="nodeLabel markdown-node-label"><p>ID: NFR-001</p></span></div></foreignObject></g><g class="label" style="" transform="translate(-143.78125, 9.5)"><foreignObject width="287.5625" height="21"><div xmlns="http://www.w3.org/1999/xhtml" style="display: table-cell; white-space: nowrap; line-height: 1.5; max-width: 345px; text-align: center;"><span class="nodeLabel markdown-node-label"><p>Text: Reset email delivered within 30 seconds</p></span></div></foreignObject></g><g class="label" style="" transform="translate(-143.78125, 30.5)"><foreignObject width="59.25" height="21"><div xmlns="http://www.w3.org/1999/xhtml" style="display: table-cell; white-space: nowrap; line-height: 1.5; max-width: 117px; text-align: center;"><span class="nodeLabel markdown-node-label"><p>Risk: Low</p></span></div></foreignObject></g><g class="label" style="" transform="translate(-143.78125, 51.5)"><foreignObject width="106.90625" height="21"><div xmlns="http://www.w3.org/1999/xhtml" style="display: table-cell; white-space: nowrap; line-height: 1.5; max-width: 160px; text-align: center;"><span class="nodeLabel markdown-node-label"><p>Verification: Test</p></span></div></foreignObject></g><g style=""><path d="M-153.78125 -21 C-64.62952681009524 -21, 24.522196379809515 -21, 153.78125 -21 M-153.78125 -21 C-43.126425253569494 -21, 67.52839949286101 -21, 153.78125 -21" stroke="#218bff" stroke-width="1.3" fill="none" stroke-dasharray="0 0"/></g></g><g class="node default" id="hashAlgorithm" transform="translate(920.0546875, 328)"><g class="basic label-container" style=""><path d="M-167.0234375 -83 L167.0234375 -83 L167.0234375 83 L-167.0234375 83" stroke="none" stroke-width="0" fill="#ddf4ff"/><path d="M-167.0234375 -83 C-61.045813789148326 -83, 44.93180992170335 -83, 167.0234375 -83 M-167.0234375 -83 C-43.3889768003351 -83, 80.2454838993298 -83, 167.0234375 -83 M167.0234375 -83 C167.0234375 -43.497396960064535, 167.0234375 -3.9947939201290694, 167.0234375 83 M167.0234375 -83 C167.0234375 -43.71717589017153, 167.0234375 -4.434351780343064, 167.0234375 83 M167.0234375 83 C78.00044234319671 83, -11.02255281360658 83, -167.0234375 83 M167.0234375 83 C99.17688136992366 83, 31.330325239847326 83, -167.0234375 83 M-167.0234375 83 C-167.0234375 37.66539513966248, -167.0234375 -7.669209720675042, -167.0234375 -83 M-167.0234375 83 C-167.0234375 27.20846728178995, -167.0234375 -28.5830654364201, -167.0234375 -83" stroke="#218bff" stroke-width="1.3" fill="none" stroke-dasharray="0 0"/></g><g class="label" style="" transform="translate(-69.4453125, -73.5)"><foreignObject width="138.890625" height="21"><div xmlns="http://www.w3.org/1999/xhtml" style="display: table-cell; white-space: nowrap; line-height: 1.5; max-width: 276px; text-align: center;"><span class="nodeLabel markdown-node-label"><p>&lt;&lt;Design Constraint&gt;&gt;</p></span></div></foreignObject></g><g class="label" style="; font-weight: bold;" transform="translate(-47.0390625, -52.5)"><foreignObject width="94.078125" height="21"><div style="font-weight: bold; display: table-cell; white-space: nowrap; line-height: 1.5; max-width: 146px; text-align: center;" xmlns="http://www.w3.org/1999/xhtml"><span style="; font-weight: bold;" class="nodeLabel markdown-node-label"><p>hashAlgorithm</p></span></div></foreignObject></g><g class="label" style="" transform="translate(-157.0234375, -11.5)"><foreignObject width="65.96875" height="21"><div xmlns="http://www.w3.org/1999/xhtml" style="display: table-cell; white-space: nowrap; line-height: 1.5; max-width: 127px; text-align: center;"><span class="nodeLabel markdown-node-label"><p>ID: DC-001</p></span></div></foreignObject></g><g class="label" style="" transform="translate(-157.0234375, 9.5)"><foreignObject width="314.046875" height="21"><div xmlns="http://www.w3.org/1999/xhtml" style="display: table-cell; white-space: nowrap; line-height: 1.5; max-width: 371px; text-align: center;"><span class="nodeLabel markdown-node-label"><p>Text: Passwords hashed with bcrypt cost factor 12</p></span></div></foreignObject></g><g class="label" style="" transform="translate(-157.0234375, 30.5)"><foreignObject width="82.859375" height="21"><div xmlns="http://www.w3.org/1999/xhtml" style="display: table-cell; white-space: nowrap; line-height: 1.5; max-width: 142px; text-align: center;"><span class="nodeLabel markdown-node-label"><p>Risk: Medium</p></span></div></foreignObject></g><g class="label" style="" transform="translate(-157.0234375, 51.5)"><foreignObject width="146.203125" height="21"><div xmlns="http://www.w3.org/1999/xhtml" style="display: table-cell; white-space: nowrap; line-height: 1.5; max-width: 201px; text-align: center;"><span class="nodeLabel markdown-node-label"><p>Verification: Inspection</p></span></div></foreignObject></g><g style=""><path d="M-167.0234375 -21 C-69.22516872663844 -21, 28.573100046723113 -21, 167.0234375 -21 M-167.0234375 -21 C-41.53157266263537 -21, 83.96029217472926 -21, 167.0234375 -21" stroke="#218bff" stroke-width="1.3" fill="none" stroke-dasharray="0 0"/></g></g></g></g></g></svg>