<svg id="my-svg" width="100%" xmlns="http://www.w3.org/2000/svg" xmlns:xlink="http://www.w3.org/1999/xlink" style="max-width: 787.172px; background-color: white;" viewBox="-179.171875 -34.70000076293945 787.171875 389.0496520996094" role="graphics-document document" aria-roledescription="gitGraph"><style>#my-svg{font-family:"trebuchet ms",verdana,arial,sans-serif;font-size:14px;fill:#1f2328;}@keyframes edge-animation-frame{from{stroke-dashoffset:0;}}@keyframes dash{to{stroke-dashoffset:0;}}#my-svg .edge-animation-slow{stroke-dasharray:9,5!important;stroke-dashoffset:900;animation:dash 50s linear infinite;stroke-linecap:round;}#my-svg .edge-animation-fast{stroke-dasharray:9,5!important;stroke-dashoffset:900;animation:dash 20s linear infinite;stroke-linecap:round;}#my-svg .error-icon{fill:#fff8c5;}#my-svg .error-text{fill:#00073a;stroke:#00073a;}#my-svg .edge-thickness-normal{stroke-width:1px;}#my-svg .edge-thickness-thick{stroke-width:3.5px;}#my-svg .edge-pattern-solid{stroke-dasharray:0;}#my-svg .edge-thickness-invisible{stroke-width:0;fill:none;}#my-svg .edge-pattern-dashed{stroke-dasharray:3;}#my-svg .edge-pattern-dotted{stroke-dasharray:2;}#my-svg .marker{fill:#656d76;stroke:#656d76;}#my-svg .marker.cross{stroke:#656d76;}#my-svg svg{font-family:"trebuchet ms",verdana,arial,sans-serif;font-size:14px;}#my-svg p{margin:0;}#my-svg .commit-id,#my-svg .commit-msg,#my-svg .branch-label{fill:lightgrey;color:lightgrey;font-family:'trebuchet ms',verdana,arial,sans-serif;font-family:var(--mermaid-font-family);}#my-svg .branch-label0{fill:#1f2328;}#my-svg .commit0{stroke:hsl(199.4117647059, 100%, 68.3333333333%);fill:hsl(199.4117647059, 100%, 68.3333333333%);}#my-svg .commit-highlight0{stroke:rgb(161.5000000002, 52.2500000001, 0);fill:rgb(161.5000000002, 52.2500000001, 0);}#my-svg .label0{fill:hsl(199.4117647059, 100%, 68.3333333333%);}#my-svg .arrow0{stroke:hsl(199.4117647059, 100%, 68.3333333333%);}#my-svg .branch-label1{fill:#1f2328;}#my-svg .commit1{stroke:hsl(132.7272727273, 80.487804878%, 66.9607843137%);fill:hsl(132.7272727273, 80.487804878%, 66.9607843137%);}#my-svg .commit-highlight1{stroke:rgb(152.0609756098, 16.4390243903, 123.2926829268);fill:rgb(152.0609756098, 16.4390243903, 123.2926829268);}#my-svg .label1{fill:hsl(132.7272727273, 80.487804878%, 66.9607843137%);}#my-svg .arrow1{stroke:hsl(132.7272727273, 80.487804878%, 66.9607843137%);}#my-svg .branch-label2{fill:#1f2328;}#my-svg .commit2{stroke:hsl(52.7586206897, 100%, 63.6274509804%);fill:hsl(52.7586206897, 100%, 63.6274509804%);}#my-svg .commit-highlight2{stroke:rgb(0, 22.3879310343, 185.5);fill:rgb(0, 22.3879310343, 185.5);}#my-svg .label2{fill:hsl(52.7586206897, 100%, 63.6274509804%);}#my-svg .arrow2{stroke:hsl(52.7586206897, 100%, 63.6274509804%);}#my-svg .branch-label3{fill:#1f2328;}#my-svg .commit3{stroke:hsl(169.4117647059, 100%, 68.3333333333%);fill:hsl(169.4117647059, 100%, 68.3333333333%);}#my-svg .commit-highlight3{stroke:rgb(161.5000000002, 0, 28.5);fill:rgb(161.5000000002, 0, 28.5);}#my-svg .label3{fill:hsl(169.4117647059, 100%, 68.3333333333%);}#my-svg .arrow3{stroke:hsl(169.4117647059, 100%, 68.3333333333%);}#my-svg .branch-label4{fill:#1f2328;}#my-svg .commit4{stroke:hsl(139.4117647059, 100%, 68.3333333333%);fill:hsl(139.4117647059, 100%, 68.3333333333%);}#my-svg .commit-highlight4{stroke:rgb(161.5000000002, 0, 109.2500000001);fill:rgb(161.5000000002, 0, 109.2500000001);}#my-svg .label4{fill:hsl(139.4117647059, 100%, 68.3333333333%);}#my-svg .arrow4{stroke:hsl(139.4117647059, 100%, 68.3333333333%);}#my-svg .branch-label5{fill:#1f2328;}#my-svg .commit5{stroke:hsl(109.4117647059, 100%, 68.3333333333%);fill:hsl(109.4117647059, 100%, 68.3333333333%);}#my-svg .commit-highlight5{stroke:rgb(133.0000000002, 0, 161.5000000002);fill:rgb(133.0000000002, 0, 161.5000000002);}#my-svg .label5{fill:hsl(109.4117647059, 100%, 68.3333333333%);}#my-svg .arrow5{stroke:hsl(109.4117647059, 100%, 68.3333333333%);}#my-svg .branch-label6{fill:#1f2328;}#my-svg .commit6{stroke:hsl(259.4117647059, 100%, 68.3333333333%);fill:hsl(259.4117647059, 100%, 68.3333333333%);}#my-svg .commit-highlight6{stroke:rgb(109.2500000001, 161.5000000002, 0);fill:rgb(109.2500000001, 161.5000000002, 0);}#my-svg .label6{fill:hsl(259.4117647059, 100%, 68.3333333333%);}#my-svg .arrow6{stroke:hsl(259.4117647059, 100%, 68.3333333333%);}#my-svg .branch-label7{fill:#1f2328;}#my-svg .commit7{stroke:hsl(319.4117647059, 100%, 68.3333333333%);fill:hsl(319.4117647059, 100%, 68.3333333333%);}#my-svg .commit-highlight7{stroke:rgb(0, 161.5000000002, 52.2500000001);fill:rgb(0, 161.5000000002, 52.2500000001);}#my-svg .label7{fill:hsl(319.4117647059, 100%, 68.3333333333%);}#my-svg .arrow7{stroke:hsl(319.4117647059, 100%, 68.3333333333%);}#my-svg .branch{stroke-width:1;stroke:#656d76;stroke-dasharray:2;}#my-svg .commit-label{font-size:10px;fill:#25041e;}#my-svg .commit-label-bkg{font-size:10px;fill:#dafbe1;opacity:0.5;}#my-svg .tag-label{font-size:10px;fill:#1f2328;}#my-svg .tag-label-bkg{fill:#ddf4ff;stroke:#218bff;}#my-svg .tag-hole{fill:#1f2328;}#my-svg .commit-merge{stroke:#ddf4ff;fill:#ddf4ff;}#my-svg .commit-reverse{stroke:#ddf4ff;fill:#ddf4ff;stroke-width:3;}#my-svg .commit-highlight-inner{stroke:#ddf4ff;fill:#ddf4ff;}#my-svg .arrow{stroke-width:8;stroke-linecap:round;fill:none;}#my-svg .gitTitleText{text-anchor:middle;font-size:18px;fill:#1f2328;}#my-svg :root{--mermaid-font-family:"trebuchet ms",verdana,arial,sans-serif;}</style><g/><g class="commit-bullets"/><g class="commit-labels"/><g><line x1="0" y1="0" x2="600" y2="0" class="branch branch0"/><rect class="branchLabelBkg label0" rx="4" ry="4" x="-64.625" y="0" width="48.625" height="20" transform="translate(-19, -8)"/><g class="branchLabel"><g class="label branch-label0" transform="translate(-74.625, -9)"><text><tspan xml:space="preserve" dy="1em" x="0" class="row">main</tspan></text></g></g><line x1="0" y1="90" x2="600" y2="90" class="branch branch1"/><rect class="branchLabelBkg label1" rx="4" ry="4" x="-116" y="0" width="100" height="20" transform="translate(-19, 82)"/><g class="branchLabel"><g class="label branch-label1" transform="translate(-126, 81)"><text><tspan xml:space="preserve" dy="1em" x="0" class="row">feature/auth</tspan></text></g></g><line x1="0" y1="180" x2="600" y2="180" class="branch branch2"/><rect class="branchLabelBkg label2" rx="4" ry="4" x="-152.171875" y="0" width="136.171875" height="20" transform="translate(-19, 172)"/><g class="branchLabel"><g class="label branch-label2" transform="translate(-162.171875, 171)"><text><tspan xml:space="preserve" dy="1em" x="0" class="row">feature/dashboard</tspan></text></g></g><line x1="0" y1="270" x2="600" y2="270" class="branch branch3"/><rect class="branchLabelBkg label3" rx="4" ry="4" x="-129.875" y="0" width="113.875" height="20" transform="translate(-19, 262)"/><g class="branchLabel"><g class="label branch-label3" transform="translate(-139.875, 261)"><text><tspan xml:space="preserve" dy="1em" x="0" class="row">hotfix/login-fix</tspan></text></g></g></g><g class="commit-arrows"><path d="M 10 0 L 60 0" class="arrow arrow0"/><path d="M 60 0 L 60 70 A 20 20, 0, 0, 0, 80 90 L 110 90" class="arrow arrow1"/><path d="M 110 90 L 160 90" class="arrow arrow1"/><path d="M 60 0 L 210 0" class="arrow arrow0"/><path d="M 160 90 L 190 90 A 20 20, 0, 0, 0, 210 70 L 210 0" class="arrow arrow1"/><path d="M 210 0 L 260 0" class="arrow arrow0"/><path d="M 260 0 L 260 160 A 20 20, 0, 0, 0, 280 180 L 310 180" class="arrow arrow2"/><path d="M 310 180 L 360 180" class="arrow arrow2"/><path d="M 260 0 L 410 0" class="arrow arrow0"/><path d="M 360 180 L 390 180 A 20 20, 0, 0, 0, 410 160 L 410 0" class="arrow arrow2"/><path d="M 410 0 L 460 0" class="arrow arrow0"/><path d="M 460 0 L 460 250 A 20 20, 0, 0, 0, 480 270 L 510 270" class="arrow arrow3"/><path d="M 460 0 L 560 0" class="arrow arrow0"/><path d="M 510 270 L 540 270 A 20 20, 0, 0, 0, 560 250 L 560 0" class="arrow arrow3"/></g><g class="commit-bullets"><circle cx="10" cy="0" r="10" class="commit init commit0"/><circle cx="60" cy="0" r="10" class="commit setup CI commit0"/><circle cx="110" cy="90" r="10" class="commit add login endpoint commit1"/><circle cx="160" cy="90" r="10" class="commit add JWT middleware commit1"/><circle cx="210" cy="0" r="9" class="commit merge auth commit0"/><circle cx="210" cy="0" r="6" class="commit commit-merge merge auth commit0"/><circle cx="260" cy="0" r="10" class="commit update deps commit0"/><circle cx="310" cy="180" r="10" class="commit add dashboard UI commit2"/><circle cx="360" cy="180" r="10" class="commit add charts commit2"/><circle cx="410" cy="0" r="9" class="commit merge dashboard commit0"/><circle cx="410" cy="0" r="6" class="commit commit-merge merge dashboard commit0"/><circle cx="460" cy="0" r="10" class="commit bump version commit0"/><circle cx="510" cy="270" r="10" class="commit fix token refresh commit3"/><circle cx="560" cy="0" r="9" class="commit merge hotfix commit0"/><circle cx="560" cy="0" r="6" class="commit commit-merge merge hotfix commit0"/></g><g class="commit-labels"><g transform="translate(-17.0534375, 15.1478125) rotate(-45, 0, 0)"><rect class="commit-label-bkg" x="0.4296875" y="13.5" width="19.140625" height="15"/><text x="2.4296875" y="25" class="commit-label">init</text></g><g transform="translate(-25.086875, 22.335625) rotate(-45, 50, 0)"><rect class="commit-label-bkg" x="39.859375" y="13.5" width="40.28125" height="15.05078125"/><text x="41.859375" y="25" class="commit-label">setup CI</text></g><g transform="translate(-43.136875, 38.485625) rotate(-45, 100, 90)"><rect class="commit-label-bkg" x="66.109375" y="103.5" width="87.78125" height="15.05078125"/><text x="68.109375" y="115" class="commit-label">add login endpoint</text></g><g transform="translate(-47.0496875, 41.986562500000005) rotate(-45, 150, 90)"><rect class="commit-label-bkg" x="110.9609375" y="103.5" width="98.078125" height="15"/><text x="112.9609375" y="115" class="commit-label">add JWT middleware</text></g><g transform="translate(-30.786875, 27.435625) rotate(-45, 200, 0)"><rect class="commit-label-bkg" x="182.359375" y="13.5" width="55.28125" height="15.05078125"/><text x="184.359375" y="25" class="commit-label">merge auth</text></g><g transform="translate(-32.17625, 28.678749999999997) rotate(-45, 250, 0)"><rect class="commit-label-bkg" x="230.53125" y="13.5" width="58.9375" height="15.05078125"/><text x="232.53125" y="25" class="commit-label">update deps</text></g><g transform="translate(-40.82125, 36.41375) rotate(-45, 300, 180)"><rect class="commit-label-bkg" x="269.15625" y="193.5" width="81.6875" height="15"/><text x="271.15625" y="205" class="commit-label">add dashboard UI</text></g><g transform="translate(-29.1540625, 25.9746875) rotate(-45, 350, 180)"><rect class="commit-label-bkg" x="334.5078125" y="193.5" width="50.984375" height="15"/><text x="336.5078125" y="205" class="commit-label">add charts</text></g><g transform="translate(-40.6075, 36.2225) rotate(-45, 400, 0)"><rect class="commit-label-bkg" x="369.4375" y="13.5" width="81.125" height="15.05078125"/><text x="371.4375" y="25" class="commit-label">merge dashboard</text></g><g transform="translate(-34.0584375, 30.3628125) rotate(-45, 450, 0)"><rect class="commit-label-bkg" x="428.0546875" y="13.5" width="63.890625" height="15.05078125"/><text x="430.0546875" y="25" class="commit-label">bump version</text></g><polygon class="tag-label-bkg" points="434.0078125,-17.2  &#10;      434.0078125,-21.2&#10;      442.0078125,-26.7&#10;      477.9921875,-26.7&#10;      477.9921875,-11.7&#10;      442.0078125,-11.7"/><circle cy="-19.2" cx="438.0078125" r="1.5" class="tag-hole"/><text y="-16" class="tag-label" x="446.0078125">v1.0.0</text><g transform="translate(-39.7109375, 35.4203125) rotate(-45, 500, 270)"><rect class="commit-label-bkg" x="470.6171875" y="283.5" width="78.765625" height="15"/><text x="472.6171875" y="295" class="commit-label">fix token refresh</text></g><g transform="translate(-33.1440625, 29.5446875) rotate(-45, 550, 0)"><rect class="commit-label-bkg" x="529.2578125" y="13.5" width="61.484375" height="15.05078125"/><text x="531.2578125" y="25" class="commit-label">merge hotfix</text></g><polygon class="tag-label-bkg" points="534.0078125,-17.2  &#10;      534.0078125,-21.2&#10;      542.0078125,-26.7&#10;      577.9921875,-26.7&#10;      577.9921875,-11.7&#10;      542.0078125,-11.7"/><circle cy="-19.2" cx="538.0078125" r="1.5" class="tag-hole"/><text y="-16" class="tag-label" x="546.0078125">v1.0.1</text></g></svg>