<svg id="my-svg" width="100%" xmlns="http://www.w3.org/2000/svg" xmlns:xlink="http://www.w3.org/1999/xlink" class="mindmapDiagram" style="max-width: 905.775px; background-color: white;" viewBox="5 5 905.7750244140625 410.4021301269531" role="graphics-document document" aria-roledescription="mindmap"><style>#my-svg{font-family:"trebuchet ms",verdana,arial,sans-serif;font-size:14px;fill:#1f2328;}@keyframes edge-animation-frame{from{stroke-dashoffset:0;}}@keyframes dash{to{stroke-dashoffset:0;}}#my-svg .edge-animation-slow{stroke-dasharray:9,5!important;stroke-dashoffset:900;animation:dash 50s linear infinite;stroke-linecap:round;}#my-svg .edge-animation-fast{stroke-dasharray:9,5!important;stroke-dashoffset:900;animation:dash 20s linear infinite;stroke-linecap:round;}#my-svg .error-icon{fill:#fff8c5;}#my-svg .error-text{fill:#00073a;stroke:#00073a;}#my-svg .edge-thickness-normal{stroke-width:1px;}#my-svg .edge-thickness-thick{stroke-width:3.5px;}#my-svg .edge-pattern-solid{stroke-dasharray:0;}#my-svg .edge-thickness-invisible{stroke-width:0;fill:none;}#my-svg .edge-pattern-dashed{stroke-dasharray:3;}#my-svg .edge-pattern-dotted{stroke-dasharray:2;}#my-svg .marker{fill:#656d76;stroke:#656d76;}#my-svg .marker.cross{stroke:#656d76;}#my-svg svg{font-family:"trebuchet ms",verdana,arial,sans-serif;font-size:14px;}#my-svg p{margin:0;}#my-svg .edge{stroke-width:3;}#my-svg .section--1 rect,#my-svg .section--1 path,#my-svg .section--1 circle,#my-svg .section--1 polygon,#my-svg .section--1 path{fill:hsl(199.4117647059, 100%, 68.3333333333%);}#my-svg .section--1 text{fill:#1f2328;}#my-svg .node-icon--1{font-size:40px;color:#1f2328;}#my-svg .section-edge--1{stroke:hsl(199.4117647059, 100%, 68.3333333333%);}#my-svg .edge-depth--1{stroke-width:17;}#my-svg .section--1 line{stroke:rgb(161.5000000002, 52.2500000001, 0);stroke-width:3;}#my-svg .disabled,#my-svg .disabled circle,#my-svg .disabled text{fill:lightgray;}#my-svg .disabled text{fill:#efefef;}#my-svg .section-0 rect,#my-svg .section-0 path,#my-svg .section-0 circle,#my-svg .section-0 polygon,#my-svg .section-0 path{fill:hsl(132.7272727273, 80.487804878%, 66.9607843137%);}#my-svg .section-0 text{fill:#1f2328;}#my-svg .node-icon-0{font-size:40px;color:#1f2328;}#my-svg .section-edge-0{stroke:hsl(132.7272727273, 80.487804878%, 66.9607843137%);}#my-svg .edge-depth-0{stroke-width:14;}#my-svg .section-0 line{stroke:rgb(152.0609756098, 16.4390243903, 123.2926829268);stroke-width:3;}#my-svg .disabled,#my-svg .disabled circle,#my-svg .disabled text{fill:lightgray;}#my-svg .disabled text{fill:#efefef;}#my-svg .section-1 rect,#my-svg .section-1 path,#my-svg .section-1 circle,#my-svg .section-1 polygon,#my-svg .section-1 path{fill:hsl(52.7586206897, 100%, 63.6274509804%);}#my-svg .section-1 text{fill:#1f2328;}#my-svg .node-icon-1{font-size:40px;color:#1f2328;}#my-svg .section-edge-1{stroke:hsl(52.7586206897, 100%, 63.6274509804%);}#my-svg .edge-depth-1{stroke-width:11;}#my-svg .section-1 line{stroke:rgb(0, 22.3879310343, 185.5);stroke-width:3;}#my-svg .disabled,#my-svg .disabled circle,#my-svg .disabled text{fill:lightgray;}#my-svg .disabled text{fill:#efefef;}#my-svg .section-2 rect,#my-svg .section-2 path,#my-svg .section-2 circle,#my-svg .section-2 polygon,#my-svg .section-2 path{fill:hsl(229.4117647059, 100%, 68.3333333333%);}#my-svg .section-2 text{fill:#1f2328;}#my-svg .node-icon-2{font-size:40px;color:#1f2328;}#my-svg .section-edge-2{stroke:hsl(229.4117647059, 100%, 68.3333333333%);}#my-svg .edge-depth-2{stroke-width:8;}#my-svg .section-2 line{stroke:rgb(161.5000000002, 133.0000000002, 0);stroke-width:3;}#my-svg .disabled,#my-svg .disabled circle,#my-svg .disabled text{fill:lightgray;}#my-svg .disabled text{fill:#efefef;}#my-svg .section-3 rect,#my-svg .section-3 path,#my-svg .section-3 circle,#my-svg .section-3 polygon,#my-svg .section-3 path{fill:hsl(259.4117647059, 100%, 68.3333333333%);}#my-svg .section-3 text{fill:#1f2328;}#my-svg .node-icon-3{font-size:40px;color:#1f2328;}#my-svg .section-edge-3{stroke:hsl(259.4117647059, 100%, 68.3333333333%);}#my-svg .edge-depth-3{stroke-width:5;}#my-svg .section-3 line{stroke:rgb(109.2500000001, 161.5000000002, 0);stroke-width:3;}#my-svg .disabled,#my-svg .disabled circle,#my-svg .disabled text{fill:lightgray;}#my-svg .disabled text{fill:#efefef;}#my-svg .section-4 rect,#my-svg .section-4 path,#my-svg .section-4 circle,#my-svg .section-4 polygon,#my-svg .section-4 path{fill:hsl(289.4117647059, 100%, 68.3333333333%);}#my-svg .section-4 text{fill:#1f2328;}#my-svg .node-icon-4{font-size:40px;color:#1f2328;}#my-svg .section-edge-4{stroke:hsl(289.4117647059, 100%, 68.3333333333%);}#my-svg .edge-depth-4{stroke-width:2;}#my-svg .section-4 line{stroke:rgb(28.5, 161.5000000002, 0);stroke-width:3;}#my-svg .disabled,#my-svg .disabled circle,#my-svg .disabled text{fill:lightgray;}#my-svg .disabled text{fill:#efefef;}#my-svg .section-5 rect,#my-svg .section-5 path,#my-svg .section-5 circle,#my-svg .section-5 polygon,#my-svg .section-5 path{fill:hsl(319.4117647059, 100%, 68.3333333333%);}#my-svg .section-5 text{fill:#1f2328;}#my-svg .node-icon-5{font-size:40px;color:#1f2328;}#my-svg .section-edge-5{stroke:hsl(319.4117647059, 100%, 68.3333333333%);}#my-svg .edge-depth-5{stroke-width:-1;}#my-svg .section-5 line{stroke:rgb(0, 161.5000000002, 52.2500000001);stroke-width:3;}#my-svg .disabled,#my-svg .disabled circle,#my-svg .disabled text{fill:lightgray;}#my-svg .disabled text{fill:#efefef;}#my-svg .section-6 rect,#my-svg .section-6 path,#my-svg .section-6 circle,#my-svg .section-6 polygon,#my-svg .section-6 path{fill:hsl(349.4117647059, 100%, 68.3333333333%);}#my-svg .section-6 text{fill:#1f2328;}#my-svg .node-icon-6{font-size:40px;color:#1f2328;}#my-svg .section-edge-6{stroke:hsl(349.4117647059, 100%, 68.3333333333%);}#my-svg .edge-depth-6{stroke-width:-4;}#my-svg .section-6 line{stroke:rgb(0, 161.5000000002, 133.0000000002);stroke-width:3;}#my-svg .disabled,#my-svg .disabled circle,#my-svg .disabled text{fill:lightgray;}#my-svg .disabled text{fill:#efefef;}#my-svg .section-7 rect,#my-svg .section-7 path,#my-svg .section-7 circle,#my-svg .section-7 polygon,#my-svg .section-7 path{fill:hsl(49.4117647059, 100%, 75%);}#my-svg .section-7 text{fill:#1f2328;}#my-svg .node-icon-7{font-size:40px;color:#1f2328;}#my-svg .section-edge-7{stroke:hsl(49.4117647059, 100%, 75%);}#my-svg .edge-depth-7{stroke-width:-7;}#my-svg .section-7 line{stroke:rgb(0, 22.5, 127.5);stroke-width:3;}#my-svg .disabled,#my-svg .disabled circle,#my-svg .disabled text{fill:lightgray;}#my-svg .disabled text{fill:#efefef;}#my-svg .section-8 rect,#my-svg .section-8 path,#my-svg .section-8 circle,#my-svg .section-8 polygon,#my-svg .section-8 path{fill:hsl(109.4117647059, 100%, 68.3333333333%);}#my-svg .section-8 text{fill:#1f2328;}#my-svg .node-icon-8{font-size:40px;color:#1f2328;}#my-svg .section-edge-8{stroke:hsl(109.4117647059, 100%, 68.3333333333%);}#my-svg .edge-depth-8{stroke-width:-10;}#my-svg .section-8 line{stroke:rgb(133.0000000002, 0, 161.5000000002);stroke-width:3;}#my-svg .disabled,#my-svg .disabled circle,#my-svg .disabled text{fill:lightgray;}#my-svg .disabled text{fill:#efefef;}#my-svg .section-9 rect,#my-svg .section-9 path,#my-svg .section-9 circle,#my-svg .section-9 polygon,#my-svg .section-9 path{fill:hsl(139.4117647059, 100%, 68.3333333333%);}#my-svg .section-9 text{fill:#1f2328;}#my-svg .node-icon-9{font-size:40px;color:#1f2328;}#my-svg .section-edge-9{stroke:hsl(139.4117647059, 100%, 68.3333333333%);}#my-svg .edge-depth-9{stroke-width:-13;}#my-svg .section-9 line{stroke:rgb(161.5000000002, 0, 109.2500000001);stroke-width:3;}#my-svg .disabled,#my-svg .disabled circle,#my-svg .disabled text{fill:lightgray;}#my-svg .disabled text{fill:#efefef;}#my-svg .section-10 rect,#my-svg .section-10 path,#my-svg .section-10 circle,#my-svg .section-10 polygon,#my-svg .section-10 path{fill:hsl(169.4117647059, 100%, 68.3333333333%);}#my-svg .section-10 text{fill:#1f2328;}#my-svg .node-icon-10{font-size:40px;color:#1f2328;}#my-svg .section-edge-10{stroke:hsl(169.4117647059, 100%, 68.3333333333%);}#my-svg .edge-depth-10{stroke-width:-16;}#my-svg .section-10 line{stroke:rgb(161.5000000002, 0, 28.5);stroke-width:3;}#my-svg .disabled,#my-svg .disabled circle,#my-svg .disabled text{fill:lightgray;}#my-svg .disabled text{fill:#efefef;}#my-svg .section-root rect,#my-svg .section-root path,#my-svg .section-root circle,#my-svg .section-root polygon{fill:hsl(199.4117647059, 100%, 68.3333333333%);}#my-svg .section-root text{fill:#1f2328;}#my-svg .section-root span{color:#1f2328;}#my-svg .section-2 span{color:#1f2328;}#my-svg .icon-container{height:100%;display:flex;justify-content:center;align-items:center;}#my-svg .edge{fill:none;}#my-svg .mindmap-node-label{dy:1em;alignment-baseline:middle;text-anchor:middle;dominant-baseline:middle;text-align:center;}#my-svg :root{--mermaid-font-family:"trebuchet ms",verdana,arial,sans-serif;}</style><g><marker id="my-svg_mindmap-pointEnd" class="marker mindmap" viewBox="0 0 10 10" refX="5" refY="5" markerUnits="userSpaceOnUse" markerWidth="8" markerHeight="8" orient="auto"><path d="M 0 0 L 10 5 L 0 10 z" class="arrowMarkerPath" style="stroke-width: 1; stroke-dasharray: 1, 0;"/></marker><marker id="my-svg_mindmap-pointStart" class="marker mindmap" viewBox="0 0 10 10" refX="4.5" refY="5" markerUnits="userSpaceOnUse" markerWidth="8" markerHeight="8" orient="auto"><path d="M 0 5 L 10 10 L 10 0 z" class="arrowMarkerPath" style="stroke-width: 1; stroke-dasharray: 1, 0;"/></marker><g class="subgraphs"/><g class="edgePaths"><path d="M452.558,198.591L461.451,191.67C470.344,184.749,488.13,170.907,505.916,157.066C523.702,143.224,541.488,129.382,550.381,122.461L559.274,115.54" id="edge_0_1" class="edge-thickness-normal edge-pattern-solid edge section-edge-0 edge-depth-1" style="undefined;;;undefined" data-edge="true" data-et="edge" data-id="edge_0_1" data-points="W3sieCI6NDUyLjU1ODI3NDQ4MTAzNTM3LCJ5IjoxOTguNTkxMDE1NjgwNjIyMjN9LHsieCI6NTA1LjkxNjEzMTY2NjYyOTIsInkiOjE1Ny4wNjU1MTIzMDUxMjUyNX0seyJ4Ijo1NTkuMjczOTg4ODUyMjIzLCJ5IjoxMTUuNTQwMDA4OTI5NjI4Mjd9XQ=="/><path d="M583.334,115.023L588.457,118.668C593.581,122.313,603.828,129.604,614.075,136.894C624.322,144.185,634.569,151.475,639.692,155.12L644.816,158.765" id="edge_1_2" class="edge-thickness-normal edge-pattern-solid edge section-edge-0 edge-depth-5" style="undefined;;;undefined" data-edge="true" data-et="edge" data-id="edge_1_2" data-points="W3sieCI6NTgzLjMzMzg5OTExNDk0OTMsInkiOjExNS4wMjMxNDg0NzE0MzU5N30seyJ4Ijo2MTQuMDc0OTI4MTg5NjEzMywieSI6MTM2Ljg5NDE5MjMyMTc2NTczfSx7IngiOjY0NC44MTU5NTcyNjQyNzcyLCJ5IjoxNTguNzY1MjM2MTcyMDk1NDh9XQ=="/><path d="M586.089,107.156L602.888,108.086C619.687,109.016,653.286,110.875,686.885,112.735C720.483,114.594,754.082,116.454,770.881,117.384L787.681,118.313" id="edge_1_3" class="edge-thickness-normal edge-pattern-solid edge section-edge-0 edge-depth-5" style="undefined;;;undefined" data-edge="true" data-et="edge" data-id="edge_1_3" data-points="W3sieCI6NTg2LjA4ODY2OTYyOTY5NTcsInkiOjEwNy4xNTYzNDY4OTE1NTUwMn0seyJ4Ijo2ODYuODg0NzAyMzQ1MTU1NSwieSI6MTEyLjczNDgyODE5OTgzNjA0fSx7IngiOjc4Ny42ODA3MzUwNjA2MTUyLCJ5IjoxMTguMzEzMzA5NTA4MTE3MDd9XQ=="/><path d="M585.214,101.218L594.597,97.818C603.98,94.419,622.745,87.62,641.51,80.821C660.275,74.022,679.04,67.223,688.423,63.824L697.805,60.424" id="edge_1_4" class="edge-thickness-normal edge-pattern-solid edge section-edge-0 edge-depth-5" style="undefined;;;undefined" data-edge="true" data-et="edge" data-id="edge_1_4" data-points="W3sieCI6NTg1LjIxNDQ1NDE4MDkxODksInkiOjEwMS4yMTc3MzQ4NTQ2MjgxOX0seyJ4Ijo2NDEuNTA5ODIyNDA2MzMzMSwieSI6ODAuODIwOTI5ODc2MjU0MDF9LHsieCI6Njk3LjgwNTE5MDYzMTc0NzMsInkiOjYwLjQyNDEyNDg5Nzg3OTgzfV0="/><path d="M561.763,94.597L558.284,90.233C554.806,85.869,547.85,77.142,540.894,68.414C533.938,59.686,526.982,50.958,523.504,46.594L520.025,42.23" id="edge_1_5" class="edge-thickness-normal edge-pattern-solid edge section-edge-0 edge-depth-5" style="undefined;;;undefined" data-edge="true" data-et="edge" data-id="edge_1_5" data-points="W3sieCI6NTYxLjc2MjU2OTAzOTgzNDEsInkiOjk0LjU5NzMyNzE0NTYzNDUyfSx7IngiOjU0MC44OTM5OTA1MjY0NzE3LCJ5Ijo2OC40MTM3MjU3NzM5ODE3NX0seyJ4Ijo1MjAuMDI1NDEyMDEzMTA5MywieSI6NDIuMjMwMTI0NDAyMzI4OTh9XQ=="/><path d="M451.609,218.121L459.958,226.033C468.307,233.945,485.006,249.769,501.705,265.593C518.403,281.417,535.102,297.241,543.451,305.153L551.801,313.065" id="edge_0_6" class="edge-thickness-normal edge-pattern-solid edge section-edge-1 edge-depth-1" style="undefined;;;undefined" data-edge="true" data-et="edge" data-id="edge_0_6" data-points="W3sieCI6NDUxLjYwODYyODg2MjU1NjQsInkiOjIxOC4xMjExNTIxMjMxNzA1M30seyJ4Ijo1MDEuNzA0Njk1NTg5NzgzOCwieSI6MjY1LjU5Mjg4ODgyMDU5NzJ9LHsieCI6NTUxLjgwMDc2MjMxNzAxMTMsInkiOjMxMy4wNjQ2MjU1MTgwMjM4M31d"/><path d="M574.384,313.989L579.073,310.223C583.762,306.457,593.14,298.925,602.519,291.393C611.897,283.861,621.275,276.329,625.964,272.562L630.653,268.796" id="edge_6_7" class="edge-thickness-normal edge-pattern-solid edge section-edge-1 edge-depth-5" style="undefined;;;undefined" data-edge="true" data-et="edge" data-id="edge_6_7" data-points="W3sieCI6NTc0LjM4Mzc0OTU0MDU2MjgsInkiOjMxMy45ODkzMjMyNjM3ODA5fSx7IngiOjYwMi41MTg1MjY2MDI3ODIzLCJ5IjoyOTEuMzkyODM4Mjg2NjA2MX0seyJ4Ijo2MzAuNjUzMzAzNjY1MDAxOSwieSI6MjY4Ljc5NjM1MzMwOTQzMTN9XQ=="/><path d="M574.743,332.309L580.219,336.365C585.695,340.42,596.648,348.531,607.6,356.642C618.553,364.753,629.505,372.864,634.981,376.92L640.457,380.975" id="edge_6_8" class="edge-thickness-normal edge-pattern-solid edge section-edge-1 edge-depth-5" style="undefined;;;undefined" data-edge="true" data-et="edge" data-id="edge_6_8" data-points="W3sieCI6NTc0Ljc0MzA3NjU0NTkzMzcsInkiOjMzMi4zMDkyNjU3NzY4NTk0fSx7IngiOjYwNy42MDAyMDczMzU1MjEsInkiOjM1Ni42NDIxNzM4ODE4MTgxN30seyJ4Ijo2NDAuNDU3MzM4MTI1MTA4MiwieSI6MzgwLjk3NTA4MTk4Njc3Njk2fV0="/><path d="M548.829,329.118L540.546,332.546C532.263,335.974,515.696,342.83,499.13,349.686C482.564,356.542,465.998,363.398,457.715,366.826L449.432,370.254" id="edge_6_9" class="edge-thickness-normal edge-pattern-solid edge section-edge-1 edge-depth-5" style="undefined;;;undefined" data-edge="true" data-et="edge" data-id="edge_6_9" data-points="W3sieCI6NTQ4LjgyODc3NDMxMzAyODYsInkiOjMyOS4xMTgyMjk1MjM2MTExNX0seyJ4Ijo0OTkuMTMwMTQwMzU3MTIwNiwieSI6MzQ5LjY4NjMyMzE3ODAyODR9LHsieCI6NDQ5LjQzMTUwNjQwMTIxMjYsInkiOjM3MC4yNTQ0MTY4MzI0NDU2fV0="/><path d="M577.687,323.575L590.188,323.735C602.689,323.896,627.691,324.217,652.693,324.538C677.695,324.859,702.697,325.181,715.198,325.341L727.699,325.502" id="edge_6_10" class="edge-thickness-normal edge-pattern-solid edge section-edge-1 edge-depth-5" style="undefined;;;undefined" data-edge="true" data-et="edge" data-id="edge_6_10" data-points="W3sieCI6NTc3LjY4NzQ3OTkxNzI5MTUsInkiOjMyMy41NzQ4NjQ5OTY0MjMyfSx7IngiOjY1Mi42OTMzMTk1MjU3MjQsInkiOjMyNC41MzgzMjE1NjE2MzA4fSx7IngiOjcyNy42OTkxNTkxMzQxNTY0LCJ5IjozMjUuNTAxNzc4MTI2ODM4NX1d"/><path d="M427.334,214.571L417.572,219.507C407.811,224.442,388.287,234.312,368.763,244.183C349.24,254.053,329.716,263.924,319.954,268.859L310.193,273.794" id="edge_0_11" class="edge-thickness-normal edge-pattern-solid edge section-edge-2 edge-depth-1" style="undefined;;;undefined" data-edge="true" data-et="edge" data-id="edge_0_11" data-points="W3sieCI6NDI3LjMzNDIwMzk5MjM0MDEsInkiOjIxNC41NzEzMjE3NDYzMzI1fSx7IngiOjM2OC43NjMzNzg0MzA5MDIwNCwieSI6MjQ0LjE4Mjc1OTk0MjMwMjQ4fSx7IngiOjMxMC4xOTI1NTI4Njk0NjM5NSwieSI6MjczLjc5NDE5ODEzODI3MjQ2fV0="/><path d="M283.89,272.935L277.893,269.394C271.897,265.853,259.904,258.77,247.911,251.688C235.918,244.606,223.925,237.524,217.928,233.983L211.931,230.442" id="edge_11_12" class="edge-thickness-normal edge-pattern-solid edge section-edge-2 edge-depth-5" style="undefined;;;undefined" data-edge="true" data-et="edge" data-id="edge_11_12" data-points="W3sieCI6MjgzLjg4OTk5MjYyMjMzMTUzLCJ5IjoyNzIuOTM0NzE4NTI3NDA1OH0seyJ4IjoyNDcuOTEwNzQzMjEzNzQzNCwieSI6MjUxLjY4ODIwMDIwNTg3MzV9LHsieCI6MjExLjkzMTQ5MzgwNTE1NTIsInkiOjIzMC40NDE2ODE4ODQzNDEyMn1d"/><path d="M288.084,292.765L284.997,297.083C281.911,301.401,275.738,310.037,269.566,318.672C263.393,327.308,257.22,335.944,254.134,340.262L251.048,344.58" id="edge_11_13" class="edge-thickness-normal edge-pattern-solid edge section-edge-2 edge-depth-5" style="undefined;;;undefined" data-edge="true" data-et="edge" data-id="edge_11_13" data-points="W3sieCI6Mjg4LjA4MzU1MDIxNDMzNywieSI6MjkyLjc2NTExOTQ5MjgwODZ9LHsieCI6MjY5LjU2NTY4OTg4MzM0MjY2LCJ5IjozMTguNjcyMzQ3OTA2MDQxM30seyJ4IjoyNTEuMDQ3ODI5NTUyMzQ4MzMsInkiOjM0NC41Nzk1NzYzMTkyNzR9XQ=="/><path d="M281.923,282.429L270.226,283.897C258.53,285.365,235.136,288.3,211.743,291.235C188.35,294.17,164.957,297.105,153.26,298.573L141.563,300.04" id="edge_11_14" class="edge-thickness-normal edge-pattern-solid edge section-edge-2 edge-depth-5" style="undefined;;;undefined" data-edge="true" data-et="edge" data-id="edge_11_14" data-points="W3sieCI6MjgxLjkyMjc3ODc2MDIwNzQ1LCJ5IjoyODIuNDI5MzY2Nzg5NDAxOH0seyJ4IjoyMTEuNzQzMTM3NDUwNjc0NjIsInkiOjI5MS4yMzQ4NjE5OTg3MjI3NX0seyJ4IjoxNDEuNTYzNDk2MTQxMTQxOCwieSI6MzAwLjA0MDM1NzIwODA0Mzd9XQ=="/><path d="M426.817,202.174L416.184,197.868C405.551,193.562,384.284,184.951,363.017,176.339C341.751,167.728,320.484,159.117,309.85,154.811L299.217,150.505" id="edge_0_15" class="edge-thickness-normal edge-pattern-solid edge section-edge-3 edge-depth-1" style="undefined;;;undefined" data-edge="true" data-et="edge" data-id="edge_0_15" data-points="W3sieCI6NDI2LjgxNzI2MzcxMTY5MDc3LCJ5IjoyMDIuMTczNzI1NDY4NDQ2NjN9LHsieCI6MzYzLjAxNzIwMzM4OTYzMzI3LCJ5IjoxNzYuMzM5NDQzNzk4OTg4OX0seyJ4IjoyOTkuMjE3MTQzMDY3NTc1NzYsInkiOjE1MC41MDUxNjIxMjk1MzExNn1d"/><path d="M270.375,146.226L256.795,147.453C243.216,148.681,216.058,151.136,188.899,153.591C161.741,156.045,134.582,158.5,121.003,159.728L107.423,160.955" id="edge_15_16" class="edge-thickness-normal edge-pattern-solid edge section-edge-3 edge-depth-5" style="undefined;;;undefined" data-edge="true" data-et="edge" data-id="edge_15_16" data-points="W3sieCI6MjcwLjM3NDY0MTY2MzYzNjE3LCJ5IjoxNDYuMjI1NzA1MjAwMTQzNX0seyJ4IjoxODguODk5MDUzOTE3OTUyNDcsInkiOjE1My41OTA1MzU2MTc0NTg1fSx7IngiOjEwNy40MjM0NjYxNzIyNjg3NywieSI6MTYwLjk1NTM2NjAzNDc3MzV9XQ=="/><path d="M271.468,139.105L263.175,135.648C254.881,132.191,238.294,125.278,221.708,118.365C205.121,111.451,188.534,104.538,180.24,101.081L171.947,97.625" id="edge_15_17" class="edge-thickness-normal edge-pattern-solid edge section-edge-3 edge-depth-5" style="undefined;;;undefined" data-edge="true" data-et="edge" data-id="edge_15_17" data-points="W3sieCI6MjcxLjQ2ODIwMDYwNDI1MzMsInkiOjEzOS4xMDQ1OTIxMTc5Nzc4fSx7IngiOjIyMS43MDc1OTYxNDIzODg5MiwieSI6MTE4LjM2NDcxNTEwMzMxMzEzfSx7IngiOjE3MS45NDY5OTE2ODA1MjQ1NSwieSI6OTcuNjI0ODM4MDg4NjQ4NDd9XQ=="/><path d="M293.219,132.128L295.886,127.827C298.553,123.526,303.887,114.924,309.221,106.323C314.555,97.721,319.89,89.119,322.557,84.819L325.224,80.518" id="edge_15_18" class="edge-thickness-normal edge-pattern-solid edge section-edge-3 edge-depth-5" style="undefined;;;undefined" data-edge="true" data-et="edge" data-id="edge_15_18" data-points="W3sieCI6MjkzLjIxOTAxNTIyMzUyMzEsInkiOjEzMi4xMjc1MTAzOTY0NjY5fSx7IngiOjMwOS4yMjEzNDA0MTEzNzE5NSwieSI6MTA2LjMyMjY3NTQ0Mzc4MDM4fSx7IngiOjMyNS4yMjM2NjU1OTkyMjA4LCJ5Ijo4MC41MTc4NDA0OTEwOTM4OH1d"/></g><g class="edgeLabels"><g class="edgeLabel"><g class="label" data-id="edge_0_1" transform="translate(0, 0)"><foreignObject width="0" height="0"><div xmlns="http://www.w3.org/1999/xhtml" class="labelBkg" style="display: table-cell; white-space: nowrap; line-height: 1.5; max-width: 200px; text-align: center;"><span class="edgeLabel"></span></div></foreignObject></g></g><g class="edgeLabel"><g class="label" data-id="edge_1_2" transform="translate(0, 0)"><foreignObject width="0" height="0"><div xmlns="http://www.w3.org/1999/xhtml" class="labelBkg" style="display: table-cell; white-space: nowrap; line-height: 1.5; max-width: 200px; text-align: center;"><span class="edgeLabel"></span></div></foreignObject></g></g><g class="edgeLabel"><g class="label" data-id="edge_1_3" transform="translate(0, 0)"><foreignObject width="0" height="0"><div xmlns="http://www.w3.org/1999/xhtml" class="labelBkg" style="display: table-cell; white-space: nowrap; line-height: 1.5; max-width: 200px; text-align: center;"><span class="edgeLabel"></span></div></foreignObject></g></g><g class="edgeLabel"><g class="label" data-id="edge_1_4" transform="translate(0, 0)"><foreignObject width="0" height="0"><div xmlns="http://www.w3.org/1999/xhtml" class="labelBkg" style="display: table-cell; white-space: nowrap; line-height: 1.5; max-width: 200px; text-align: center;"><span class="edgeLabel"></span></div></foreignObject></g></g><g class="edgeLabel"><g class="label" data-id="edge_1_5" transform="translate(0, 0)"><foreignObject width="0" height="0"><div xmlns="http://www.w3.org/1999/xhtml" class="labelBkg" style="display: table-cell; white-space: nowrap; line-height: 1.5; max-width: 200px; text-align: center;"><span class="edgeLabel"></span></div></foreignObject></g></g><g class="edgeLabel"><g class="label" data-id="edge_0_6" transform="translate(0, 0)"><foreignObject width="0" height="0"><div xmlns="http://www.w3.org/1999/xhtml" class="labelBkg" style="display: table-cell; white-space: nowrap; line-height: 1.5; max-width: 200px; text-align: center;"><span class="edgeLabel"></span></div></foreignObject></g></g><g class="edgeLabel"><g class="label" data-id="edge_6_7" transform="translate(0, 0)"><foreignObject width="0" height="0"><div xmlns="http://www.w3.org/1999/xhtml" class="labelBkg" style="display: table-cell; white-space: nowrap; line-height: 1.5; max-width: 200px; text-align: center;"><span class="edgeLabel"></span></div></foreignObject></g></g><g class="edgeLabel"><g class="label" data-id="edge_6_8" transform="translate(0, 0)"><foreignObject width="0" height="0"><div xmlns="http://www.w3.org/1999/xhtml" class="labelBkg" style="display: table-cell; white-space: nowrap; line-height: 1.5; max-width: 200px; text-align: center;"><span class="edgeLabel"></span></div></foreignObject></g></g><g class="edgeLabel"><g class="label" data-id="edge_6_9" transform="translate(0, 0)"><foreignObject width="0" height="0"><div xmlns="http://www.w3.org/1999/xhtml" class="labelBkg" style="display: table-cell; white-space: nowrap; line-height: 1.5; max-width: 200px; text-align: center;"><span class="edgeLabel"></span></div></foreignObject></g></g><g class="edgeLabel"><g class="label" data-id="edge_6_10" transform="translate(0, 0)"><foreignObject width="0" height="0"><div xmlns="http://www.w3.org/1999/xhtml" class="labelBkg" style="display: table-cell; white-space: nowrap; line-height: 1.5; max-width: 200px; text-align: center;"><span class="edgeLabel"></span></div></foreignObject></g></g><g class="edgeLabel"><g class="label" data-id="edge_0_11" transform="translate(0, 0)"><foreignObject width="0" height="0"><div xmlns="http://www.w3.org/1999/xhtml" class="labelBkg" style="display: table-cell; white-space: nowrap; line-height: 1.5; max-width: 200px; text-align: center;"><span class="edgeLabel"></span></div></foreignObject></g></g><g class="edgeLabel"><g class="label" data-id="edge_11_12" transform="translate(0, 0)"><foreignObject width="0" height="0"><div xmlns="http://www.w3.org/1999/xhtml" class="labelBkg" style="display: table-cell; white-space: nowrap; line-height: 1.5; max-width: 200px; text-align: center;"><span class="edgeLabel"></span></div></foreignObject></g></g><g class="edgeLabel"><g class="label" data-id="edge_11_13" transform="translate(0, 0)"><foreignObject width="0" height="0"><div xmlns="http://www.w3.org/1999/xhtml" class="labelBkg" style="display: table-cell; white-space: nowrap; line-height: 1.5; max-width: 200px; text-align: center;"><span class="edgeLabel"></span></div></foreignObject></g></g><g class="edgeLabel"><g class="label" data-id="edge_11_14" transform="translate(0, 0)"><foreignObject width="0" height="0"><div xmlns="http://www.w3.org/1999/xhtml" class="labelBkg" style="display: table-cell; white-space: nowrap; line-height: 1.5; max-width: 200px; text-align: center;"><span class="edgeLabel"></span></div></foreignObject></g></g><g class="edgeLabel"><g class="label" data-id="edge_0_15" transform="translate(0, 0)"><foreignObject width="0" height="0"><div xmlns="http://www.w3.org/1999/xhtml" class="labelBkg" style="display: table-cell; white-space: nowrap; line-height: 1.5; max-width: 200px; text-align: center;"><span class="edgeLabel"></span></div></foreignObject></g></g><g class="edgeLabel"><g class="label" data-id="edge_15_16" transform="translate(0, 0)"><foreignObject width="0" height="0"><div xmlns="http://www.w3.org/1999/xhtml" class="labelBkg" style="display: table-cell; white-space: nowrap; line-height: 1.5; max-width: 200px; text-align: center;"><span class="edgeLabel"></span></div></foreignObject></g></g><g class="edgeLabel"><g class="label" data-id="edge_15_17" transform="translate(0, 0)"><foreignObject width="0" height="0"><div xmlns="http://www.w3.org/1999/xhtml" class="labelBkg" style="display: table-cell; white-space: nowrap; line-height: 1.5; max-width: 200px; text-align: center;"><span class="edgeLabel"></span></div></foreignObject></g></g><g class="edgeLabel"><g class="label" data-id="edge_15_18" transform="translate(0, 0)"><foreignObject width="0" height="0"><div xmlns="http://www.w3.org/1999/xhtml" class="labelBkg" style="display: table-cell; white-space: nowrap; line-height: 1.5; max-width: 200px; text-align: center;"><span class="edgeLabel"></span></div></foreignObject></g></g></g><g class="nodes"><g class="node mindmap-node section-root section--1" id="node_0" transform="translate(440.7206739433616, 207.803573062287)"><circle class="basic label-container" style="" r="60.9921875" cx="0" cy="0"/><g class="label" style="" transform="translate(-50.9921875, -10.5)"><rect/><foreignObject width="101.984375" height="21"><div xmlns="http://www.w3.org/1999/xhtml" style="display: table-cell; white-space: nowrap; line-height: 1.5; max-width: 200px; text-align: center;"><span class="nodeLabel"><p>Project Manager</p></span></div></foreignObject></g></g><g class="node mindmap-node section-0" id="node_1" transform="translate(571.1115893898968, 106.3274515479635)"><path id="node-1" class="node-bkg node-0" style="" d="M-75.0546875 10.5&#10;    v-21&#10;    q0,-5 5,-5&#10;    h140.109375&#10;    q5,0 5,5&#10;    v21&#10;    q0,5 -5,5&#10;    h-140.109375&#10;    q-5,0 -5,-5&#10;    Z"/><line class="node-line-" x1="-75.0546875" y1="15.5" x2="75.0546875" y2="15.5"/><g class="label" style="" transform="translate(-55.0546875, -10.5)"><rect/><foreignObject width="110.109375" height="21"><div xmlns="http://www.w3.org/1999/xhtml" style="display: table-cell; white-space: nowrap; line-height: 1.5; max-width: 200px; text-align: center;"><span class="nodeLabel"><p>Task Management</p></span></div></foreignObject></g></g><g class="node mindmap-node section-0" id="node_2" transform="translate(657.0382669893297, 167.46093309556795)"><path id="node-2" class="node-bkg node-0" style="" d="M-93.0625 10.5&#10;    v-21&#10;    q0,-5 5,-5&#10;    h176.125&#10;    q5,0 5,5&#10;    v21&#10;    q0,5 -5,5&#10;    h-176.125&#10;    q-5,0 -5,-5&#10;    Z"/><line class="node-line-" x1="-93.0625" y1="15.5" x2="93.0625" y2="15.5"/><g class="label" style="" transform="translate(-73.0625, -10.5)"><rect/><foreignObject width="146.125" height="21"><div xmlns="http://www.w3.org/1999/xhtml" style="display: table-cell; white-space: nowrap; line-height: 1.5; max-width: 200px; text-align: center;"><span class="nodeLabel"><p>Create and assign tasks</p></span></div></foreignObject></g></g><g class="node mindmap-node section-0" id="node_3" transform="translate(802.6578153004141, 119.14220485170858)"><path id="node-3" class="node-bkg node-0" style="" d="M-98.1171875 10.5&#10;    v-21&#10;    q0,-5 5,-5&#10;    h186.234375&#10;    q5,0 5,5&#10;    v21&#10;    q0,5 -5,5&#10;    h-186.234375&#10;    q-5,0 -5,-5&#10;    Z"/><line class="node-line-" x1="-98.1171875" y1="15.5" x2="98.1171875" y2="15.5"/><g class="label" style="" transform="translate(-78.1171875, -10.5)"><rect/><foreignObject width="156.234375" height="21"><div xmlns="http://www.w3.org/1999/xhtml" style="display: table-cell; white-space: nowrap; line-height: 1.5; max-width: 200px; text-align: center;"><span class="nodeLabel"><p>Due dates and reminders</p></span></div></foreignObject></g></g><g class="node mindmap-node section-0" id="node_4" transform="translate(711.9080554227694, 55.31440820454452)"><path id="node-4" class="node-bkg node-0" style="" d="M-76.6328125 10.5&#10;    v-21&#10;    q0,-5 5,-5&#10;    h143.265625&#10;    q5,0 5,5&#10;    v21&#10;    q0,5 -5,5&#10;    h-143.265625&#10;    q-5,0 -5,-5&#10;    Z"/><line class="node-line-" x1="-76.6328125" y1="15.5" x2="76.6328125" y2="15.5"/><g class="label" style="" transform="translate(-56.6328125, -10.5)"><rect/><foreignObject width="113.265625" height="21"><div xmlns="http://www.w3.org/1999/xhtml" style="display: table-cell; white-space: nowrap; line-height: 1.5; max-width: 200px; text-align: center;"><span class="nodeLabel"><p>Subtask checklists</p></span></div></foreignObject></g></g><g class="node mindmap-node section-0" id="node_5" transform="translate(510.6763916630466, 30.5)"><path id="node-5" class="node-bkg node-0" style="" d="M-90.453125 10.5&#10;    v-21&#10;    q0,-5 5,-5&#10;    h170.90625&#10;    q5,0 5,5&#10;    v21&#10;    q0,5 -5,5&#10;    h-170.90625&#10;    q-5,0 -5,-5&#10;    Z"/><line class="node-line-" x1="-90.453125" y1="15.5" x2="90.453125" y2="15.5"/><g class="label" style="" transform="translate(-70.453125, -10.5)"><rect/><foreignObject width="140.90625" height="21"><div xmlns="http://www.w3.org/1999/xhtml" style="display: table-cell; white-space: nowrap; line-height: 1.5; max-width: 200px; text-align: center;"><span class="nodeLabel"><p>Drag-and-drop priority</p></span></div></foreignObject></g></g><g class="node mindmap-node section-1" id="node_6" transform="translate(562.688717236206, 323.38220457890736)"><path id="node-6" class="node-bkg node-0" style="" d="M-62.1640625 10.5&#10;    v-21&#10;    q0,-5 5,-5&#10;    h114.328125&#10;    q5,0 5,5&#10;    v21&#10;    q0,5 -5,5&#10;    h-114.328125&#10;    q-5,0 -5,-5&#10;    Z"/><line class="node-line-" x1="-62.1640625" y1="15.5" x2="62.1640625" y2="15.5"/><g class="label" style="" transform="translate(-42.1640625, -10.5)"><rect/><foreignObject width="84.328125" height="21"><div xmlns="http://www.w3.org/1999/xhtml" style="display: table-cell; white-space: nowrap; line-height: 1.5; max-width: 200px; text-align: center;"><span class="nodeLabel"><p>Collaboration</p></span></div></foreignObject></g></g><g class="node mindmap-node section-1" id="node_7" transform="translate(642.3483359693587, 259.4034719943048)"><path id="node-7" class="node-bkg node-0" style="" d="M-84.53125 10.5&#10;    v-21&#10;    q0,-5 5,-5&#10;    h159.0625&#10;    q5,0 5,5&#10;    v21&#10;    q0,5 -5,5&#10;    h-159.0625&#10;    q-5,0 -5,-5&#10;    Z"/><line class="node-line-" x1="-84.53125" y1="15.5" x2="84.53125" y2="15.5"/><g class="label" style="" transform="translate(-64.53125, -10.5)"><rect/><foreignObject width="129.0625" height="21"><div xmlns="http://www.w3.org/1999/xhtml" style="display: table-cell; white-space: nowrap; line-height: 1.5; max-width: 200px; text-align: center;"><span class="nodeLabel"><p>Real-time comments</p></span></div></foreignObject></g></g><g class="node mindmap-node section-1" id="node_8" transform="translate(652.5116974348359, 389.90214318472897)"><path id="node-8" class="node-bkg node-0" style="" d="M-108.921875 10.5&#10;    v-21&#10;    q0,-5 5,-5&#10;    h207.84375&#10;    q5,0 5,5&#10;    v21&#10;    q0,5 -5,5&#10;    h-207.84375&#10;    q-5,0 -5,-5&#10;    Z"/><line class="node-line-" x1="-108.921875" y1="15.5" x2="108.921875" y2="15.5"/><g class="label" style="" transform="translate(-88.921875, -10.5)"><rect/><foreignObject width="177.84375" height="21"><div xmlns="http://www.w3.org/1999/xhtml" style="display: table-cell; white-space: nowrap; line-height: 1.5; max-width: 200px; text-align: center;"><span class="nodeLabel"><p>@mentions and notifications</p></span></div></foreignObject></g></g><g class="node mindmap-node section-1" id="node_9" transform="translate(435.57156347803516, 375.9904417771494)"><path id="node-9" class="node-bkg node-0" style="" d="M-72.921875 10.5&#10;    v-21&#10;    q0,-5 5,-5&#10;    h135.84375&#10;    q5,0 5,5&#10;    v21&#10;    q0,5 -5,5&#10;    h-135.84375&#10;    q-5,0 -5,-5&#10;    Z"/><line class="node-line-" x1="-72.921875" y1="15.5" x2="72.921875" y2="15.5"/><g class="label" style="" transform="translate(-52.921875, -10.5)"><rect/><foreignObject width="105.84375" height="21"><div xmlns="http://www.w3.org/1999/xhtml" style="display: table-cell; white-space: nowrap; line-height: 1.5; max-width: 200px; text-align: center;"><span class="nodeLabel"><p>File attachments</p></span></div></foreignObject></g></g><g class="node mindmap-node section-1" id="node_10" transform="translate(742.6979218152419, 325.6944385443543)"><path id="node-10" class="node-bkg node-0" style="" d="M-60.25 10.5&#10;    v-21&#10;    q0,-5 5,-5&#10;    h110.5&#10;    q5,0 5,5&#10;    v21&#10;    q0,5 -5,5&#10;    h-110.5&#10;    q-5,0 -5,-5&#10;    Z"/><line class="node-line-" x1="-60.25" y1="15.5" x2="60.25" y2="15.5"/><g class="label" style="" transform="translate(-40.25, -10.5)"><rect/><foreignObject width="80.5" height="21"><div xmlns="http://www.w3.org/1999/xhtml" style="display: table-cell; white-space: nowrap; line-height: 1.5; max-width: 200px; text-align: center;"><span class="nodeLabel"><p>Activity feed</p></span></div></foreignObject></g></g><g class="node mindmap-node section-2" id="node_11" transform="translate(296.8060829184425, 280.56194682231796)"><path id="node-11" class="node-bkg node-0" style="" d="M-50.1015625 10.5&#10;    v-21&#10;    q0,-5 5,-5&#10;    h90.203125&#10;    q5,0 5,5&#10;    v21&#10;    q0,5 -5,5&#10;    h-90.203125&#10;    q-5,0 -5,-5&#10;    Z"/><line class="node-line-" x1="-50.1015625" y1="15.5" x2="50.1015625" y2="15.5"/><g class="label" style="" transform="translate(-30.1015625, -10.5)"><rect/><foreignObject width="60.203125" height="21"><div xmlns="http://www.w3.org/1999/xhtml" style="display: table-cell; white-space: nowrap; line-height: 1.5; max-width: 200px; text-align: center;"><span class="nodeLabel"><p>Reporting</p></span></div></foreignObject></g></g><g class="node mindmap-node section-2" id="node_12" transform="translate(199.0154035090443, 222.81445358942904)"><path id="node-12" class="node-bkg node-0" style="" d="M-72.4296875 10.5&#10;    v-21&#10;    q0,-5 5,-5&#10;    h134.859375&#10;    q5,0 5,5&#10;    v21&#10;    q0,5 -5,5&#10;    h-134.859375&#10;    q-5,0 -5,-5&#10;    Z"/><line class="node-line-" x1="-72.4296875" y1="15.5" x2="72.4296875" y2="15.5"/><g class="label" style="" transform="translate(-52.4296875, -10.5)"><rect/><foreignObject width="104.859375" height="21"><div xmlns="http://www.w3.org/1999/xhtml" style="display: table-cell; white-space: nowrap; line-height: 1.5; max-width: 200px; text-align: center;"><span class="nodeLabel"><p>Burndown charts</p></span></div></foreignObject></g></g><g class="node mindmap-node section-2" id="node_13" transform="translate(242.32529684824283, 356.7827489897646)"><path id="node-13" class="node-bkg node-0" style="" d="M-72.609375 10.5&#10;    v-21&#10;    q0,-5 5,-5&#10;    h135.21875&#10;    q5,0 5,5&#10;    v21&#10;    q0,5 -5,5&#10;    h-135.21875&#10;    q-5,0 -5,-5&#10;    Z"/><line class="node-line-" x1="-72.609375" y1="15.5" x2="72.609375" y2="15.5"/><g class="label" style="" transform="translate(-52.609375, -10.5)"><rect/><foreignObject width="105.21875" height="21"><div xmlns="http://www.w3.org/1999/xhtml" style="display: table-cell; white-space: nowrap; line-height: 1.5; max-width: 200px; text-align: center;"><span class="nodeLabel"><p>Velocity tracking</p></span></div></foreignObject></g></g><g class="node mindmap-node section-2" id="node_14" transform="translate(126.68019198290676, 301.90777717512753)"><path id="node-14" class="node-bkg node-0" style="" d="M-63.03125 10.5&#10;    v-21&#10;    q0,-5 5,-5&#10;    h116.0625&#10;    q5,0 5,5&#10;    v21&#10;    q0,5 -5,5&#10;    h-116.0625&#10;    q-5,0 -5,-5&#10;    Z"/><line class="node-line-" x1="-63.03125" y1="15.5" x2="63.03125" y2="15.5"/><g class="label" style="" transform="translate(-43.03125, -10.5)"><rect/><foreignObject width="86.0625" height="21"><div xmlns="http://www.w3.org/1999/xhtml" style="display: table-cell; white-space: nowrap; line-height: 1.5; max-width: 200px; text-align: center;"><span class="nodeLabel"><p>Export to PDF</p></span></div></foreignObject></g></g><g class="node mindmap-node section-3" id="node_15" transform="translate(285.31373283590494, 144.8753145356908)"><path id="node-15" class="node-bkg node-0" style="" d="M-57.46875 10.5&#10;    v-21&#10;    q0,-5 5,-5&#10;    h104.9375&#10;    q5,0 5,5&#10;    v21&#10;    q0,5 -5,5&#10;    h-104.9375&#10;    q-5,0 -5,-5&#10;    Z"/><line class="node-line-" x1="-57.46875" y1="15.5" x2="57.46875" y2="15.5"/><g class="label" style="" transform="translate(-37.46875, -10.5)"><rect/><foreignObject width="74.9375" height="21"><div xmlns="http://www.w3.org/1999/xhtml" style="display: table-cell; white-space: nowrap; line-height: 1.5; max-width: 200px; text-align: center;"><span class="nodeLabel"><p>Integrations</p></span></div></foreignObject></g></g><g class="node mindmap-node section-3" id="node_16" transform="translate(92.484375, 162.3057566992262)"><path id="node-16" class="node-bkg node-0" style="" d="M-77.484375 10.5&#10;    v-21&#10;    q0,-5 5,-5&#10;    h144.96875&#10;    q5,0 5,5&#10;    v21&#10;    q0,5 -5,5&#10;    h-144.96875&#10;    q-5,0 -5,-5&#10;    Z"/><line class="node-line-" x1="-77.484375" y1="15.5" x2="77.484375" y2="15.5"/><g class="label" style="" transform="translate(-57.484375, -10.5)"><rect/><foreignObject width="114.96875" height="21"><div xmlns="http://www.w3.org/1999/xhtml" style="display: table-cell; white-space: nowrap; line-height: 1.5; max-width: 200px; text-align: center;"><span class="nodeLabel"><p>Slack notifications</p></span></div></foreignObject></g></g><g class="node mindmap-node section-3" id="node_17" transform="translate(158.1014594488729, 91.85411567093547)"><path id="node-17" class="node-bkg node-0" style="" d="M-74.9140625 10.5&#10;    v-21&#10;    q0,-5 5,-5&#10;    h139.828125&#10;    q5,0 5,5&#10;    v21&#10;    q0,5 -5,5&#10;    h-139.828125&#10;    q-5,0 -5,-5&#10;    Z"/><line class="node-line-" x1="-74.9140625" y1="15.5" x2="74.9140625" y2="15.5"/><g class="label" style="" transform="translate(-54.9140625, -10.5)"><rect/><foreignObject width="109.828125" height="21"><div xmlns="http://www.w3.org/1999/xhtml" style="display: table-cell; white-space: nowrap; line-height: 1.5; max-width: 200px; text-align: center;"><span class="nodeLabel"><p>GitHub issue sync</p></span></div></foreignObject></g></g><g class="node mindmap-node section-3" id="node_18" transform="translate(333.12894798683897, 67.77003635186998)"><path id="node-18" class="node-bkg node-0" style="" d="M-63.5625 10.5&#10;    v-21&#10;    q0,-5 5,-5&#10;    h117.125&#10;    q5,0 5,5&#10;    v21&#10;    q0,5 -5,5&#10;    h-117.125&#10;    q-5,0 -5,-5&#10;    Z"/><line class="node-line-" x1="-63.5625" y1="15.5" x2="63.5625" y2="15.5"/><g class="label" style="" transform="translate(-43.5625, -10.5)"><rect/><foreignObject width="87.125" height="21"><div xmlns="http://www.w3.org/1999/xhtml" style="display: table-cell; white-space: nowrap; line-height: 1.5; max-width: 200px; text-align: center;"><span class="nodeLabel"><p>Calendar sync</p></span></div></foreignObject></g></g></g></g></svg>