<svg id="my-svg" width="100%" xmlns="http://www.w3.org/2000/svg" xmlns:xlink="http://www.w3.org/1999/xlink" style="max-width: 2790px; background-color: white;" viewBox="100 -57 2790 612.2000122070312" role="graphics-document document" aria-roledescription="timeline"><style>#my-svg{font-family:"trebuchet ms",verdana,arial,sans-serif;font-size:14px;fill:#1f2328;}@keyframes edge-animation-frame{from{stroke-dashoffset:0;}}@keyframes dash{to{stroke-dashoffset:0;}}#my-svg .edge-animation-slow{stroke-dasharray:9,5!important;stroke-dashoffset:900;animation:dash 50s linear infinite;stroke-linecap:round;}#my-svg .edge-animation-fast{stroke-dasharray:9,5!important;stroke-dashoffset:900;animation:dash 20s linear infinite;stroke-linecap:round;}#my-svg .error-icon{fill:#fff8c5;}#my-svg .error-text{fill:#00073a;stroke:#00073a;}#my-svg .edge-thickness-normal{stroke-width:1px;}#my-svg .edge-thickness-thick{stroke-width:3.5px;}#my-svg .edge-pattern-solid{stroke-dasharray:0;}#my-svg .edge-thickness-invisible{stroke-width:0;fill:none;}#my-svg .edge-pattern-dashed{stroke-dasharray:3;}#my-svg .edge-pattern-dotted{stroke-dasharray:2;}#my-svg .marker{fill:#656d76;stroke:#656d76;}#my-svg .marker.cross{stroke:#656d76;}#my-svg svg{font-family:"trebuchet ms",verdana,arial,sans-serif;font-size:14px;}#my-svg p{margin:0;}#my-svg .edge{stroke-width:3;}#my-svg .section--1 rect,#my-svg .section--1 path,#my-svg .section--1 circle,#my-svg .section--1 path{fill:hsl(199.4117647059, 100%, 68.3333333333%);}#my-svg .section--1 text{fill:#1f2328;}#my-svg .node-icon--1{font-size:40px;color:#1f2328;}#my-svg .section-edge--1{stroke:hsl(199.4117647059, 100%, 68.3333333333%);}#my-svg .edge-depth--1{stroke-width:17;}#my-svg .section--1 line{stroke:rgb(161.5000000002, 52.2500000001, 0);stroke-width:3;}#my-svg .lineWrapper line{stroke:#1f2328;}#my-svg .disabled,#my-svg .disabled circle,#my-svg .disabled text{fill:lightgray;}#my-svg .disabled text{fill:#efefef;}#my-svg .section-0 rect,#my-svg .section-0 path,#my-svg .section-0 circle,#my-svg .section-0 path{fill:hsl(132.7272727273, 80.487804878%, 66.9607843137%);}#my-svg .section-0 text{fill:#1f2328;}#my-svg .node-icon-0{font-size:40px;color:#1f2328;}#my-svg .section-edge-0{stroke:hsl(132.7272727273, 80.487804878%, 66.9607843137%);}#my-svg .edge-depth-0{stroke-width:14;}#my-svg .section-0 line{stroke:rgb(152.0609756098, 16.4390243903, 123.2926829268);stroke-width:3;}#my-svg .lineWrapper line{stroke:#1f2328;}#my-svg .disabled,#my-svg .disabled circle,#my-svg .disabled text{fill:lightgray;}#my-svg .disabled text{fill:#efefef;}#my-svg .section-1 rect,#my-svg .section-1 path,#my-svg .section-1 circle,#my-svg .section-1 path{fill:hsl(52.7586206897, 100%, 63.6274509804%);}#my-svg .section-1 text{fill:#1f2328;}#my-svg .node-icon-1{font-size:40px;color:#1f2328;}#my-svg .section-edge-1{stroke:hsl(52.7586206897, 100%, 63.6274509804%);}#my-svg .edge-depth-1{stroke-width:11;}#my-svg .section-1 line{stroke:rgb(0, 22.3879310343, 185.5);stroke-width:3;}#my-svg .lineWrapper line{stroke:#1f2328;}#my-svg .disabled,#my-svg .disabled circle,#my-svg .disabled text{fill:lightgray;}#my-svg .disabled text{fill:#efefef;}#my-svg .section-2 rect,#my-svg .section-2 path,#my-svg .section-2 circle,#my-svg .section-2 path{fill:hsl(229.4117647059, 100%, 68.3333333333%);}#my-svg .section-2 text{fill:#1f2328;}#my-svg .node-icon-2{font-size:40px;color:#1f2328;}#my-svg .section-edge-2{stroke:hsl(229.4117647059, 100%, 68.3333333333%);}#my-svg .edge-depth-2{stroke-width:8;}#my-svg .section-2 line{stroke:rgb(161.5000000002, 133.0000000002, 0);stroke-width:3;}#my-svg .lineWrapper line{stroke:#1f2328;}#my-svg .disabled,#my-svg .disabled circle,#my-svg .disabled text{fill:lightgray;}#my-svg .disabled text{fill:#efefef;}#my-svg .section-3 rect,#my-svg .section-3 path,#my-svg .section-3 circle,#my-svg .section-3 path{fill:hsl(259.4117647059, 100%, 68.3333333333%);}#my-svg .section-3 text{fill:#1f2328;}#my-svg .node-icon-3{font-size:40px;color:#1f2328;}#my-svg .section-edge-3{stroke:hsl(259.4117647059, 100%, 68.3333333333%);}#my-svg .edge-depth-3{stroke-width:5;}#my-svg .section-3 line{stroke:rgb(109.2500000001, 161.5000000002, 0);stroke-width:3;}#my-svg .lineWrapper line{stroke:#1f2328;}#my-svg .disabled,#my-svg .disabled circle,#my-svg .disabled text{fill:lightgray;}#my-svg .disabled text{fill:#efefef;}#my-svg .section-4 rect,#my-svg .section-4 path,#my-svg .section-4 circle,#my-svg .section-4 path{fill:hsl(289.4117647059, 100%, 68.3333333333%);}#my-svg .section-4 text{fill:#1f2328;}#my-svg .node-icon-4{font-size:40px;color:#1f2328;}#my-svg .section-edge-4{stroke:hsl(289.4117647059, 100%, 68.3333333333%);}#my-svg .edge-depth-4{stroke-width:2;}#my-svg .section-4 line{stroke:rgb(28.5, 161.5000000002, 0);stroke-width:3;}#my-svg .lineWrapper line{stroke:#1f2328;}#my-svg .disabled,#my-svg .disabled circle,#my-svg .disabled text{fill:lightgray;}#my-svg .disabled text{fill:#efefef;}#my-svg .section-5 rect,#my-svg .section-5 path,#my-svg .section-5 circle,#my-svg .section-5 path{fill:hsl(319.4117647059, 100%, 68.3333333333%);}#my-svg .section-5 text{fill:#1f2328;}#my-svg .node-icon-5{font-size:40px;color:#1f2328;}#my-svg .section-edge-5{stroke:hsl(319.4117647059, 100%, 68.3333333333%);}#my-svg .edge-depth-5{stroke-width:-1;}#my-svg .section-5 line{stroke:rgb(0, 161.5000000002, 52.2500000001);stroke-width:3;}#my-svg .lineWrapper line{stroke:#1f2328;}#my-svg .disabled,#my-svg .disabled circle,#my-svg .disabled text{fill:lightgray;}#my-svg .disabled text{fill:#efefef;}#my-svg .section-6 rect,#my-svg .section-6 path,#my-svg .section-6 circle,#my-svg .section-6 path{fill:hsl(349.4117647059, 100%, 68.3333333333%);}#my-svg .section-6 text{fill:#1f2328;}#my-svg .node-icon-6{font-size:40px;color:#1f2328;}#my-svg .section-edge-6{stroke:hsl(349.4117647059, 100%, 68.3333333333%);}#my-svg .edge-depth-6{stroke-width:-4;}#my-svg .section-6 line{stroke:rgb(0, 161.5000000002, 133.0000000002);stroke-width:3;}#my-svg .lineWrapper line{stroke:#1f2328;}#my-svg .disabled,#my-svg .disabled circle,#my-svg .disabled text{fill:lightgray;}#my-svg .disabled text{fill:#efefef;}#my-svg .section-7 rect,#my-svg .section-7 path,#my-svg .section-7 circle,#my-svg .section-7 path{fill:hsl(49.4117647059, 100%, 75%);}#my-svg .section-7 text{fill:#1f2328;}#my-svg .node-icon-7{font-size:40px;color:#1f2328;}#my-svg .section-edge-7{stroke:hsl(49.4117647059, 100%, 75%);}#my-svg .edge-depth-7{stroke-width:-7;}#my-svg .section-7 line{stroke:rgb(0, 22.5, 127.5);stroke-width:3;}#my-svg .lineWrapper line{stroke:#1f2328;}#my-svg .disabled,#my-svg .disabled circle,#my-svg .disabled text{fill:lightgray;}#my-svg .disabled text{fill:#efefef;}#my-svg .section-8 rect,#my-svg .section-8 path,#my-svg .section-8 circle,#my-svg .section-8 path{fill:hsl(109.4117647059, 100%, 68.3333333333%);}#my-svg .section-8 text{fill:#1f2328;}#my-svg .node-icon-8{font-size:40px;color:#1f2328;}#my-svg .section-edge-8{stroke:hsl(109.4117647059, 100%, 68.3333333333%);}#my-svg .edge-depth-8{stroke-width:-10;}#my-svg .section-8 line{stroke:rgb(133.0000000002, 0, 161.5000000002);stroke-width:3;}#my-svg .lineWrapper line{stroke:#1f2328;}#my-svg .disabled,#my-svg .disabled circle,#my-svg .disabled text{fill:lightgray;}#my-svg .disabled text{fill:#efefef;}#my-svg .section-9 rect,#my-svg .section-9 path,#my-svg .section-9 circle,#my-svg .section-9 path{fill:hsl(139.4117647059, 100%, 68.3333333333%);}#my-svg .section-9 text{fill:#1f2328;}#my-svg .node-icon-9{font-size:40px;color:#1f2328;}#my-svg .section-edge-9{stroke:hsl(139.4117647059, 100%, 68.3333333333%);}#my-svg .edge-depth-9{stroke-width:-13;}#my-svg .section-9 line{stroke:rgb(161.5000000002, 0, 109.2500000001);stroke-width:3;}#my-svg .lineWrapper line{stroke:#1f2328;}#my-svg .disabled,#my-svg .disabled circle,#my-svg .disabled text{fill:lightgray;}#my-svg .disabled text{fill:#efefef;}#my-svg .section-10 rect,#my-svg .section-10 path,#my-svg .section-10 circle,#my-svg .section-10 path{fill:hsl(169.4117647059, 100%, 68.3333333333%);}#my-svg .section-10 text{fill:#1f2328;}#my-svg .node-icon-10{font-size:40px;color:#1f2328;}#my-svg .section-edge-10{stroke:hsl(169.4117647059, 100%, 68.3333333333%);}#my-svg .edge-depth-10{stroke-width:-16;}#my-svg .section-10 line{stroke:rgb(161.5000000002, 0, 28.5);stroke-width:3;}#my-svg .lineWrapper line{stroke:#1f2328;}#my-svg .disabled,#my-svg .disabled circle,#my-svg .disabled text{fill:lightgray;}#my-svg .disabled text{fill:#efefef;}#my-svg .section-root rect,#my-svg .section-root path,#my-svg .section-root circle{fill:hsl(199.4117647059, 100%, 68.3333333333%);}#my-svg .section-root text{fill:#1f2328;}#my-svg .icon-container{height:100%;display:flex;justify-content:center;align-items:center;}#my-svg .edge{fill:none;}#my-svg .eventWrapper{filter:brightness(120%);}#my-svg :root{--mermaid-font-family:"trebuchet ms",verdana,arial,sans-serif;}</style><g/><g/><defs><marker id="arrowhead" refX="5" refY="2" markerWidth="6" markerHeight="4" orient="auto"><path d="M 0,0 V 4 L6,2 Z"/></marker></defs><g transform="translate(200, 50)"><g class="timeline-node section--1"><g><path id="node-undefined" class="node-bkg node-undefined" d="M0 59.8 v-54.8 q0,-5 5,-5 h580 q5,0 5,5 v59.8 H0 Z"/><line class="node-line--1" x1="0" y1="64.8" x2="590" y2="64.8"/></g><g transform="translate(295, 10)"><text dy="1em" alignment-baseline="middle" dominant-baseline="middle" text-anchor="middle"><tspan x="0" dy="1em">Q1   -   Foundation</tspan></text></g></g></g><g class="taskWrapper" transform="translate(200, 164.8)"><g class="timeline-node section--1"><g><path id="node-undefined" class="node-bkg node-undefined" d="M0 59.8 v-54.8 q0,-5 5,-5 h180 q5,0 5,5 v59.8 H0 Z"/><line class="node-line--1" x1="0" y1="64.8" x2="190" y2="64.8"/></g><g transform="translate(95, 10)"><text dy="1em" alignment-baseline="middle" dominant-baseline="middle" text-anchor="middle"><tspan x="0" dy="1em">Project   kickoff</tspan></text></g></g></g><g class="lineWrapper"><line x1="295" y1="229.60000000000002" x2="295" y2="505.20000305175785" stroke-width="2" stroke="black" marker-end="url(#arrowhead)" stroke-dasharray="5,5"/></g><g class="eventWrapper" transform="translate(200, 364.8)"><g class="timeline-node section--1"><g><path id="node-undefined" class="node-bkg node-undefined" d="M0 55.2000015258789 v-50.2000015258789 q0,-5 5,-5 h180 q5,0 5,5 v55.2000015258789 H0 Z"/><line class="node-line--1" x1="0" y1="60.2000015258789" x2="190" y2="60.2000015258789"/></g><g transform="translate(95, 10)"><text dy="1em" alignment-baseline="middle" dominant-baseline="middle" text-anchor="middle"><tspan x="0" dy="1em">Set   up   repo,   CI/CD,</tspan><tspan x="0" dy="1.1em">and   dev   environment</tspan></text></g></g></g><g class="taskWrapper" transform="translate(400, 164.8)"><g class="timeline-node section--1"><g><path id="node-undefined" class="node-bkg node-undefined" d="M0 59.8 v-54.8 q0,-5 5,-5 h180 q5,0 5,5 v59.8 H0 Z"/><line class="node-line--1" x1="0" y1="64.8" x2="190" y2="64.8"/></g><g transform="translate(95, 10)"><text dy="1em" alignment-baseline="middle" dominant-baseline="middle" text-anchor="middle"><tspan x="0" dy="1em">Core   API</tspan></text></g></g></g><g class="lineWrapper"><line x1="495" y1="229.60000000000002" x2="495" y2="505.20000305175785" stroke-width="2" stroke="black" marker-end="url(#arrowhead)" stroke-dasharray="5,5"/></g><g class="eventWrapper" transform="translate(400, 364.8)"><g class="timeline-node section--1"><g><path id="node-undefined" class="node-bkg node-undefined" d="M0 70.60000305175781 v-65.60000305175781 q0,-5 5,-5 h180 q5,0 5,5 v70.60000305175781 H0 Z"/><line class="node-line--1" x1="0" y1="75.60000305175781" x2="190" y2="75.60000305175781"/></g><g transform="translate(95, 10)"><text dy="1em" alignment-baseline="middle" dominant-baseline="middle" text-anchor="middle"><tspan x="0" dy="1em">User   auth,   CRUD</tspan><tspan x="0" dy="1.1em">endpoints,   database</tspan><tspan x="0" dy="1.1em">schema</tspan></text></g></g></g><g class="taskWrapper" transform="translate(600, 164.8)"><g class="timeline-node section--1"><g><path id="node-undefined" class="node-bkg node-undefined" d="M0 59.8 v-54.8 q0,-5 5,-5 h180 q5,0 5,5 v59.8 H0 Z"/><line class="node-line--1" x1="0" y1="64.8" x2="190" y2="64.8"/></g><g transform="translate(95, 10)"><text dy="1em" alignment-baseline="middle" dominant-baseline="middle" text-anchor="middle"><tspan x="0" dy="1em">Design   system</tspan></text></g></g></g><g class="lineWrapper"><line x1="695" y1="229.60000000000002" x2="695" y2="505.20000305175785" stroke-width="2" stroke="black" marker-end="url(#arrowhead)" stroke-dasharray="5,5"/></g><g class="eventWrapper" transform="translate(600, 364.8)"><g class="timeline-node section--1"><g><path id="node-undefined" class="node-bkg node-undefined" d="M0 55.2000015258789 v-50.2000015258789 q0,-5 5,-5 h180 q5,0 5,5 v55.2000015258789 H0 Z"/><line class="node-line--1" x1="0" y1="60.2000015258789" x2="190" y2="60.2000015258789"/></g><g transform="translate(95, 10)"><text dy="1em" alignment-baseline="middle" dominant-baseline="middle" text-anchor="middle"><tspan x="0" dy="1em">Component   library   and</tspan><tspan x="0" dy="1.1em">style   guide</tspan></text></g></g></g><g transform="translate(800, 50)"><g class="timeline-node section-0"><g><path id="node-undefined" class="node-bkg node-undefined" d="M0 59.8 v-54.8 q0,-5 5,-5 h580 q5,0 5,5 v59.8 H0 Z"/><line class="node-line-0" x1="0" y1="64.8" x2="590" y2="64.8"/></g><g transform="translate(295, 10)"><text dy="1em" alignment-baseline="middle" dominant-baseline="middle" text-anchor="middle"><tspan x="0" dy="1em">Q2   -   Core   Features</tspan></text></g></g></g><g class="taskWrapper" transform="translate(800, 164.8)"><g class="timeline-node section-0"><g><path id="node-undefined" class="node-bkg node-undefined" d="M0 59.8 v-54.8 q0,-5 5,-5 h180 q5,0 5,5 v59.8 H0 Z"/><line class="node-line-0" x1="0" y1="64.8" x2="190" y2="64.8"/></g><g transform="translate(95, 10)"><text dy="1em" alignment-baseline="middle" dominant-baseline="middle" text-anchor="middle"><tspan x="0" dy="1em">Task   management</tspan></text></g></g></g><g class="lineWrapper"><line x1="895" y1="229.60000000000002" x2="895" y2="505.20000305175785" stroke-width="2" stroke="black" marker-end="url(#arrowhead)" stroke-dasharray="5,5"/></g><g class="eventWrapper" transform="translate(800, 364.8)"><g class="timeline-node section-0"><g><path id="node-undefined" class="node-bkg node-undefined" d="M0 55.2000015258789 v-50.2000015258789 q0,-5 5,-5 h180 q5,0 5,5 v55.2000015258789 H0 Z"/><line class="node-line-0" x1="0" y1="60.2000015258789" x2="190" y2="60.2000015258789"/></g><g transform="translate(95, 10)"><text dy="1em" alignment-baseline="middle" dominant-baseline="middle" text-anchor="middle"><tspan x="0" dy="1em">Create,   assign,   and</tspan><tspan x="0" dy="1.1em">track   tasks</tspan></text></g></g></g><g class="taskWrapper" transform="translate(1000, 164.8)"><g class="timeline-node section-0"><g><path id="node-undefined" class="node-bkg node-undefined" d="M0 59.8 v-54.8 q0,-5 5,-5 h180 q5,0 5,5 v59.8 H0 Z"/><line class="node-line-0" x1="0" y1="64.8" x2="190" y2="64.8"/></g><g transform="translate(95, 10)"><text dy="1em" alignment-baseline="middle" dominant-baseline="middle" text-anchor="middle"><tspan x="0" dy="1em">Real-time   collaboration</tspan></text></g></g></g><g class="lineWrapper"><line x1="1095" y1="229.60000000000002" x2="1095" y2="505.20000305175785" stroke-width="2" stroke="black" marker-end="url(#arrowhead)" stroke-dasharray="5,5"/></g><g class="eventWrapper" transform="translate(1000, 364.8)"><g class="timeline-node section-0"><g><path id="node-undefined" class="node-bkg node-undefined" d="M0 55.2000015258789 v-50.2000015258789 q0,-5 5,-5 h180 q5,0 5,5 v55.2000015258789 H0 Z"/><line class="node-line-0" x1="0" y1="60.2000015258789" x2="190" y2="60.2000015258789"/></g><g transform="translate(95, 10)"><text dy="1em" alignment-baseline="middle" dominant-baseline="middle" text-anchor="middle"><tspan x="0" dy="1em">WebSocket-based   live</tspan><tspan x="0" dy="1.1em">updates</tspan></text></g></g></g><g class="taskWrapper" transform="translate(1200, 164.8)"><g class="timeline-node section-0"><g><path id="node-undefined" class="node-bkg node-undefined" d="M0 59.8 v-54.8 q0,-5 5,-5 h180 q5,0 5,5 v59.8 H0 Z"/><line class="node-line-0" x1="0" y1="64.8" x2="190" y2="64.8"/></g><g transform="translate(95, 10)"><text dy="1em" alignment-baseline="middle" dominant-baseline="middle" text-anchor="middle"><tspan x="0" dy="1em">Beta   launch</tspan></text></g></g></g><g class="lineWrapper"><line x1="1295" y1="229.60000000000002" x2="1295" y2="505.20000305175785" stroke-width="2" stroke="black" marker-end="url(#arrowhead)" stroke-dasharray="5,5"/></g><g class="eventWrapper" transform="translate(1200, 364.8)"><g class="timeline-node section-0"><g><path id="node-undefined" class="node-bkg node-undefined" d="M0 55.2000015258789 v-50.2000015258789 q0,-5 5,-5 h180 q5,0 5,5 v55.2000015258789 H0 Z"/><line class="node-line-0" x1="0" y1="60.2000015258789" x2="190" y2="60.2000015258789"/></g><g transform="translate(95, 10)"><text dy="1em" alignment-baseline="middle" dominant-baseline="middle" text-anchor="middle"><tspan x="0" dy="1em">Invite-only   beta   with</tspan><tspan x="0" dy="1.1em">50   users</tspan></text></g></g></g><g transform="translate(1400, 50)"><g class="timeline-node section-1"><g><path id="node-undefined" class="node-bkg node-undefined" d="M0 59.8 v-54.8 q0,-5 5,-5 h580 q5,0 5,5 v59.8 H0 Z"/><line class="node-line-1" x1="0" y1="64.8" x2="590" y2="64.8"/></g><g transform="translate(295, 10)"><text dy="1em" alignment-baseline="middle" dominant-baseline="middle" text-anchor="middle"><tspan x="0" dy="1em">Q3   -   Growth</tspan></text></g></g></g><g class="taskWrapper" transform="translate(1400, 164.8)"><g class="timeline-node section-1"><g><path id="node-undefined" class="node-bkg node-undefined" d="M0 59.8 v-54.8 q0,-5 5,-5 h180 q5,0 5,5 v59.8 H0 Z"/><line class="node-line-1" x1="0" y1="64.8" x2="190" y2="64.8"/></g><g transform="translate(95, 10)"><text dy="1em" alignment-baseline="middle" dominant-baseline="middle" text-anchor="middle"><tspan x="0" dy="1em">Integrations</tspan></text></g></g></g><g class="lineWrapper"><line x1="1495" y1="229.60000000000002" x2="1495" y2="505.20000305175785" stroke-width="2" stroke="black" marker-end="url(#arrowhead)" stroke-dasharray="5,5"/></g><g class="eventWrapper" transform="translate(1400, 364.8)"><g class="timeline-node section-1"><g><path id="node-undefined" class="node-bkg node-undefined" d="M0 55.2000015258789 v-50.2000015258789 q0,-5 5,-5 h180 q5,0 5,5 v55.2000015258789 H0 Z"/><line class="node-line-1" x1="0" y1="60.2000015258789" x2="190" y2="60.2000015258789"/></g><g transform="translate(95, 10)"><text dy="1em" alignment-baseline="middle" dominant-baseline="middle" text-anchor="middle"><tspan x="0" dy="1em">Slack,   GitHub,   and</tspan><tspan x="0" dy="1.1em">calendar   sync</tspan></text></g></g></g><g class="taskWrapper" transform="translate(1600, 164.8)"><g class="timeline-node section-1"><g><path id="node-undefined" class="node-bkg node-undefined" d="M0 59.8 v-54.8 q0,-5 5,-5 h180 q5,0 5,5 v59.8 H0 Z"/><line class="node-line-1" x1="0" y1="64.8" x2="190" y2="64.8"/></g><g transform="translate(95, 10)"><text dy="1em" alignment-baseline="middle" dominant-baseline="middle" text-anchor="middle"><tspan x="0" dy="1em">Mobile   app</tspan></text></g></g></g><g class="lineWrapper"><line x1="1695" y1="229.60000000000002" x2="1695" y2="505.20000305175785" stroke-width="2" stroke="black" marker-end="url(#arrowhead)" stroke-dasharray="5,5"/></g><g class="eventWrapper" transform="translate(1600, 364.8)"><g class="timeline-node section-1"><g><path id="node-undefined" class="node-bkg node-undefined" d="M0 55.2000015258789 v-50.2000015258789 q0,-5 5,-5 h180 q5,0 5,5 v55.2000015258789 H0 Z"/><line class="node-line-1" x1="0" y1="60.2000015258789" x2="190" y2="60.2000015258789"/></g><g transform="translate(95, 10)"><text dy="1em" alignment-baseline="middle" dominant-baseline="middle" text-anchor="middle"><tspan x="0" dy="1em">React   Native   app   for</tspan><tspan x="0" dy="1.1em">iOS   and   Android</tspan></text></g></g></g><g class="taskWrapper" transform="translate(1800, 164.8)"><g class="timeline-node section-1"><g><path id="node-undefined" class="node-bkg node-undefined" d="M0 59.8 v-54.8 q0,-5 5,-5 h180 q5,0 5,5 v59.8 H0 Z"/><line class="node-line-1" x1="0" y1="64.8" x2="190" y2="64.8"/></g><g transform="translate(95, 10)"><text dy="1em" alignment-baseline="middle" dominant-baseline="middle" text-anchor="middle"><tspan x="0" dy="1em">Public   launch</tspan></text></g></g></g><g class="lineWrapper"><line x1="1895" y1="229.60000000000002" x2="1895" y2="505.20000305175785" stroke-width="2" stroke="black" marker-end="url(#arrowhead)" stroke-dasharray="5,5"/></g><g class="eventWrapper" transform="translate(1800, 364.8)"><g class="timeline-node section-1"><g><path id="node-undefined" class="node-bkg node-undefined" d="M0 55.2000015258789 v-50.2000015258789 q0,-5 5,-5 h180 q5,0 5,5 v55.2000015258789 H0 Z"/><line class="node-line-1" x1="0" y1="60.2000015258789" x2="190" y2="60.2000015258789"/></g><g transform="translate(95, 10)"><text dy="1em" alignment-baseline="middle" dominant-baseline="middle" text-anchor="middle"><tspan x="0" dy="1em">Open   registration   and</tspan><tspan x="0" dy="1.1em">marketing   site</tspan></text></g></g></g><g transform="translate(2000, 50)"><g class="timeline-node section-2"><g><path id="node-undefined" class="node-bkg node-undefined" d="M0 59.8 v-54.8 q0,-5 5,-5 h580 q5,0 5,5 v59.8 H0 Z"/><line class="node-line-2" x1="0" y1="64.8" x2="590" y2="64.8"/></g><g transform="translate(295, 10)"><text dy="1em" alignment-baseline="middle" dominant-baseline="middle" text-anchor="middle"><tspan x="0" dy="1em">Q4   -   Scale</tspan></text></g></g></g><g class="taskWrapper" transform="translate(2000, 164.8)"><g class="timeline-node section-2"><g><path id="node-undefined" class="node-bkg node-undefined" d="M0 59.8 v-54.8 q0,-5 5,-5 h180 q5,0 5,5 v59.8 H0 Z"/><line class="node-line-2" x1="0" y1="64.8" x2="190" y2="64.8"/></g><g transform="translate(95, 10)"><text dy="1em" alignment-baseline="middle" dominant-baseline="middle" text-anchor="middle"><tspan x="0" dy="1em">Analytics   dashboard</tspan></text></g></g></g><g class="lineWrapper"><line x1="2095" y1="229.60000000000002" x2="2095" y2="505.20000305175785" stroke-width="2" stroke="black" marker-end="url(#arrowhead)" stroke-dasharray="5,5"/></g><g class="eventWrapper" transform="translate(2000, 364.8)"><g class="timeline-node section-2"><g><path id="node-undefined" class="node-bkg node-undefined" d="M0 55.2000015258789 v-50.2000015258789 q0,-5 5,-5 h180 q5,0 5,5 v55.2000015258789 H0 Z"/><line class="node-line-2" x1="0" y1="60.2000015258789" x2="190" y2="60.2000015258789"/></g><g transform="translate(95, 10)"><text dy="1em" alignment-baseline="middle" dominant-baseline="middle" text-anchor="middle"><tspan x="0" dy="1em">Usage   metrics   and</tspan><tspan x="0" dy="1.1em">reporting</tspan></text></g></g></g><g class="taskWrapper" transform="translate(2200, 164.8)"><g class="timeline-node section-2"><g><path id="node-undefined" class="node-bkg node-undefined" d="M0 59.8 v-54.8 q0,-5 5,-5 h180 q5,0 5,5 v59.8 H0 Z"/><line class="node-line-2" x1="0" y1="64.8" x2="190" y2="64.8"/></g><g transform="translate(95, 10)"><text dy="1em" alignment-baseline="middle" dominant-baseline="middle" text-anchor="middle"><tspan x="0" dy="1em">Enterprise   features</tspan></text></g></g></g><g class="lineWrapper"><line x1="2295" y1="229.60000000000002" x2="2295" y2="505.20000305175785" stroke-width="2" stroke="black" marker-end="url(#arrowhead)" stroke-dasharray="5,5"/></g><g class="eventWrapper" transform="translate(2200, 364.8)"><g class="timeline-node section-2"><g><path id="node-undefined" class="node-bkg node-undefined" d="M0 55.2000015258789 v-50.2000015258789 q0,-5 5,-5 h180 q5,0 5,5 v55.2000015258789 H0 Z"/><line class="node-line-2" x1="0" y1="60.2000015258789" x2="190" y2="60.2000015258789"/></g><g transform="translate(95, 10)"><text dy="1em" alignment-baseline="middle" dominant-baseline="middle" text-anchor="middle"><tspan x="0" dy="1em">SSO,   audit   logs,</tspan><tspan x="0" dy="1.1em">role-based   access</tspan></text></g></g></g><g class="taskWrapper" transform="translate(2400, 164.8)"><g class="timeline-node section-2"><g><path id="node-undefined" class="node-bkg node-undefined" d="M0 59.8 v-54.8 q0,-5 5,-5 h180 q5,0 5,5 v59.8 H0 Z"/><line class="node-line-2" x1="0" y1="64.8" x2="190" y2="64.8"/></g><g transform="translate(95, 10)"><text dy="1em" alignment-baseline="middle" dominant-baseline="middle" text-anchor="middle"><tspan x="0" dy="1em">Performance</tspan><tspan x="0" dy="1.1em">optimization</tspan></text></g></g></g><g class="lineWrapper"><line x1="2495" y1="229.60000000000002" x2="2495" y2="505.20000305175785" stroke-width="2" stroke="black" marker-end="url(#arrowhead)" stroke-dasharray="5,5"/></g><g class="eventWrapper" transform="translate(2400, 364.8)"><g class="timeline-node section-2"><g><path id="node-undefined" class="node-bkg node-undefined" d="M0 55.2000015258789 v-50.2000015258789 q0,-5 5,-5 h180 q5,0 5,5 v55.2000015258789 H0 Z"/><line class="node-line-2" x1="0" y1="60.2000015258789" x2="190" y2="60.2000015258789"/></g><g transform="translate(95, 10)"><text dy="1em" alignment-baseline="middle" dominant-baseline="middle" text-anchor="middle"><tspan x="0" dy="1em">Caching,   CDN,   and</tspan><tspan x="0" dy="1.1em">database   tuning</tspan></text></g></g></g><text x="1045" font-size="4ex" font-weight="bold" y="20">Product Roadmap 2025</text><g class="lineWrapper"><line x1="150" y1="279.6" x2="2840" y2="279.6" stroke-width="4" stroke="black" marker-end="url(#arrowhead)"/></g></svg>